<?xml version="1.0" encoding="utf-8"?>
<!-- Generator: Adobe Illustrator 15.0.0, SVG Export Plug-In . SVG Version: 6.00 Build 0)  -->
<!DOCTYPE svg PUBLIC "-//W3C//DTD SVG 1.1 Basic//EN" "http://www.w3.org/Graphics/SVG/1.1/DTD/svg11-basic.dtd">
<svg version="1.1" baseProfile="basic" xmlns="http://www.w3.org/2000/svg" xmlns:xlink="http://www.w3.org/1999/xlink" x="0px"
	 y="0px" width="144px" height="24px" viewBox="0 0 144 24" xml:space="preserve">
<g id="Layer_1">
</g>
<g id="buttons">
	<g>
		<path fill="#FFFFFF" d="M132,2c5.514,0,10,4.486,10,10c0,5.514-4.486,10-10,10s-10-4.486-10-10C122,6.486,126.486,2,132,2 M132,0
			c-6.627,0-12,5.373-12,12s5.373,12,12,12s12-5.373,12-12S138.627,0,132,0L132,0z"/>
		<g>
			<path fill="#FFFFFF" d="M92,23c-6.065,0-11-4.935-11-11S85.935,1,92,1s11,4.935,11,11S98.065,23,92,23z"/>
			<g>
				<path fill="#FFFFFF" d="M92,2c5.514,0,10,4.486,10,10c0,5.514-4.486,10-10,10s-10-4.486-10-10C82,6.486,86.486,2,92,2 M92,0
					c-6.627,0-12,5.373-12,12s5.373,12,12,12s12-5.373,12-12S98.627,0,92,0L92,0z"/>
			</g>
		</g>
		<g>
			<path fill="#FFFFFF" d="M52,23c-6.065,0-11-4.935-11-11S45.935,1,52,1s11,4.935,11,11S58.065,23,52,23z"/>
			<g>
				<path fill="#FFFFFF" d="M52,2c5.514,0,10,4.486,10,10c0,5.514-4.486,10-10,10s-10-4.486-10-10C42,6.486,46.486,2,52,2 M52,0
					c-6.627,0-12,5.373-12,12s5.373,12,12,12s12-5.373,12-12S58.627,0,52,0L52,0z"/>
			</g>
		</g>
		<g>
			<path fill="#FFFFFF" d="M12,23C5.935,23,1,18.065,1,12S5.935,1,12,1s11,4.935,11,11S18.065,23,12,23z"/>
			<path fill="#FFFFFF" d="M12,2c5.514,0,10,4.486,10,10c0,5.514-4.486,10-10,10S2,17.514,2,12C2,6.486,6.486,2,12,2 M12,0
				C5.373,0,0,5.373,0,12s5.373,12,12,12s12-5.373,12-12S18.627,0,12,0L12,0z"/>
		</g>
	</g>
</g>
</svg>
