<?xml version="1.0" encoding="utf-8"?>
<!-- Generator: Adobe Illustrator 15.0.0, SVG Export Plug-In . SVG Version: 6.00 Build 0)  -->
<!DOCTYPE svg PUBLIC "-//W3C//DTD SVG 1.1//EN" "http://www.w3.org/Graphics/SVG/1.1/DTD/svg11.dtd">
<svg version="1.1" xmlns="http://www.w3.org/2000/svg" xmlns:xlink="http://www.w3.org/1999/xlink" x="0px" y="0px"
	 width="125.982px" height="125.98px" viewBox="0 0 125.982 125.98" enable-background="new 0 0 125.982 125.98"
	 xml:space="preserve">
<g id="Layer_1">
	<g opacity="0.3">
		<path d="M124.983,62.987c0,34.237-27.756,61.993-61.992,61.993C28.752,124.98,1,97.224,1,62.987C1,28.748,28.752,1,62.99,1
			C97.227,1,124.983,28.748,124.983,62.987z"/>
	</g>
	<path fill="#40A4BF" d="M27.086,102.256"/>
	<path fill="#40A4BF" d="M27.086,102.256"/>
	<path fill="#FFFFFF" d="M80.219,95.061c2.257,1.68,5.731,1.427,7.721-0.562l6.944-6.944c1.989-1.989,1.989-5.245-0.001-7.234
		l-5.061-5.061c-1.99-1.989-4.857-2.379-6.371-0.865c-1.514,1.515-3.146,2.902-3.625,3.086c-0.48,0.184-3.167-1.961-5.156-3.95
		L55.059,53.92c-1.99-1.99-3.768-4.011-3.95-4.491c-0.183-0.48,1.571-2.777,3.085-4.292c1.514-1.514,1.125-4.381-0.865-6.371
		l-5.061-5.061c-1.99-1.99-5.246-1.99-7.235,0l-6.943,6.942c-1.99,1.99-2.243,5.464-0.563,7.722c0,0,14.786,19.864,20.808,25.885
		C60.357,80.278,80.219,95.061,80.219,95.061z"/>
</g>
<g id="Layer_2">
</g>
</svg>
