<?xml version="1.0" encoding="utf-8"?>
<!-- Generator: Adobe Illustrator 15.1.0, SVG Export Plug-In . SVG Version: 6.00 Build 0)  -->
<!DOCTYPE svg PUBLIC "-//W3C//DTD SVG 1.1//EN" "http://www.w3.org/Graphics/SVG/1.1/DTD/svg11.dtd">
<svg version="1.1" id="Layer_1" xmlns="http://www.w3.org/2000/svg" xmlns:xlink="http://www.w3.org/1999/xlink" x="0px" y="0px"
	 width="95px" height="95px" viewBox="0 0 95 95" enable-background="new 0 0 95 95" xml:space="preserve">
<symbol  id="_x34_8_square" viewBox="-24 -24 48 48">
	<g opacity="0.2">
		<path fill="#313131" d="M24,24"/>
	</g>
	<g opacity="0.2">
		<path fill="#313131" d="M24-24"/>
	</g>
	<g opacity="0.2">
		<path fill="#313131" d="M-24-24"/>
	</g>
	<g opacity="0.2">
		<path fill="#313131" d="M-24,24"/>
	</g>
</symbol>
<g opacity="0.3">
	<path d="M95,80.156C95,88.32,88.32,95,80.156,95H14.844C6.68,95,0,88.32,0,80.156V14.844C0,6.68,6.68,0,14.844,0h65.312
		C88.32,0,95,6.68,95,14.844V80.156z"/>
</g>
<g>
	<g>
		<g>
			<path fill="#FFFFFF" d="M14.03,73.337c0-0.178,0.036-0.216,0.212-0.216h6.863c0.177,0,0.215,0.039,0.215,0.216v2.066
				c0,0.174-0.038,0.217-0.215,0.217h-4.248v2.515h3.547c0.176,0,0.215,0.039,0.215,0.212v2.027c0,0.178-0.039,0.217-0.215,0.217
				h-3.547v3.898c0,0.178-0.042,0.214-0.216,0.214h-2.399c-0.176,0-0.212-0.037-0.212-0.214V73.337z"/>
			<path fill="#FFFFFF" d="M22.629,80.591c-0.174,0-0.215-0.039-0.215-0.217v-2.027c0-0.174,0.041-0.212,0.215-0.212h3.51
				c0.176,0,0.213,0.039,0.213,0.212v2.027c0,0.178-0.037,0.217-0.213,0.217H22.629z"/>
			<path fill="#FFFFFF" d="M30.291,76.281c0,0.759,0.45,0.916,2.184,1.424c2.478,0.723,3.392,1.678,3.392,3.606
				c0,2.515-2.104,3.589-4.503,3.589c-1.364,0-2.669-0.391-3.413-0.802c-0.114-0.06-0.174-0.114-0.174-0.272v-1.521
				c0-0.135,0.038-0.174,0.154-0.174c0.253,0,1.776,0.429,3.237,0.429c1.307,0,1.913-0.315,1.913-1.092
				c0-0.781-0.547-0.996-2.087-1.403c-2.594-0.704-3.472-1.658-3.472-3.589c0-2.282,1.833-3.55,4.076-3.55
				c1.305,0,2.36,0.276,3.373,0.802c0.136,0.077,0.174,0.114,0.174,0.272v1.523c0,0.135-0.077,0.174-0.174,0.174
				c-0.33,0-1.697-0.431-3.216-0.431C30.7,75.266,30.291,75.674,30.291,76.281z"/>
			<path fill="#FFFFFF" d="M39.769,81.078c0.097,1.249,0.781,1.599,2.281,1.599s2.632-0.371,2.904-0.371
				c0.118,0,0.179,0.021,0.179,0.178v1.442c0,0.174-0.084,0.21-0.219,0.271c-0.819,0.354-1.989,0.706-3.393,0.706
				c-2.862,0-4.522-1.307-4.522-4.505c0-3.025,1.64-4.662,4.409-4.662c3.117,0,4.094,1.871,4.094,4.407v0.721
				c0,0.176-0.039,0.216-0.217,0.216H39.769z M39.75,79.519h3.119c0-1.27-0.41-1.774-1.461-1.774
				C40.449,77.744,39.808,78.249,39.75,79.519z"/>
			<path fill="#FFFFFF" d="M51.039,75.734c1.113,0,2.225,0.333,2.963,0.683c0.178,0.077,0.193,0.12,0.193,0.293v1.399
				c0,0.099-0.016,0.178-0.136,0.178c-0.272,0-1.325-0.331-2.553-0.331c-1.521,0-2.088,0.82-2.088,2.364
				c0,1.539,0.566,2.356,2.088,2.356c1.228,0,2.357-0.371,2.63-0.371c0.12,0,0.14,0.075,0.14,0.174v1.446
				c0,0.174-0.02,0.21-0.193,0.293c-0.742,0.348-1.931,0.683-3.044,0.683c-3.025,0-4.407-1.875-4.407-4.581
				C46.632,77.605,48.014,75.734,51.039,75.734z"/>
			<path fill="#FFFFFF" d="M59.851,84.901c-2.396,0-4.21-0.766-4.21-3.572v-5.227c0-0.178,0.039-0.216,0.213-0.216h2.339
				c0.178,0,0.216,0.039,0.216,0.216v4.857c0,1.192,0.391,1.716,1.579,1.716c0.489,0,0.975-0.02,1.348-0.058v-6.516
				c0-0.178,0.036-0.216,0.213-0.216h2.34c0.174,0,0.215,0.039,0.215,0.216v8.093c0,0.178-0.02,0.197-0.154,0.236
				C62.798,84.704,61.258,84.901,59.851,84.901z"/>
			<path fill="#FFFFFF" d="M70.105,78.017c-0.506,0-0.991,0.058-1.285,0.174v6.299c0,0.178-0.038,0.214-0.215,0.214H66.27
				c-0.176,0-0.219-0.037-0.219-0.214v-7.801c0-0.137,0.06-0.195,0.178-0.234c1.054-0.408,2.165-0.721,3.411-0.721
				c0.742,0,1.464,0.06,2.105,0.255c0.115,0.039,0.137,0.077,0.137,0.193v1.757c0,0.174-0.056,0.195-0.176,0.195
				C71.493,78.135,70.983,78.017,70.105,78.017z"/>
			<path fill="#FFFFFF" d="M75.235,81.078c0.097,1.249,0.781,1.599,2.28,1.599c1.504,0,2.637-0.371,2.907-0.371
				c0.12,0,0.176,0.021,0.176,0.178v1.442c0,0.174-0.079,0.21-0.214,0.271c-0.818,0.354-1.991,0.706-3.395,0.706
				c-2.866,0-4.522-1.307-4.522-4.505c0-3.025,1.639-4.662,4.406-4.662c3.12,0,4.096,1.871,4.096,4.407v0.721
				c0,0.176-0.04,0.216-0.214,0.216H75.235z M75.218,79.519h3.118c0-1.27-0.406-1.774-1.462-1.774
				C75.92,77.744,75.274,78.249,75.218,79.519z"/>
		</g>
	</g>
</g>
<g id="web_uploads">
	<g>
		
			<use xlink:href="#_x34_8_square"  width="48" height="48" x="-24" y="-24" transform="matrix(1.308 0 0 -1.308 47.4707 38.8433)" overflow="visible"/>
	</g>
	<g>
		<g>
			<g>
				<path fill="#FFFFFF" d="M78.862,7.451"/>
			</g>
			<g>
				<path fill="#FFFFFF" d="M78.862,70.235"/>
			</g>
			<g>
				<path fill="#FFFFFF" d="M16.079,70.235"/>
			</g>
			<g>
				<path fill="#FFFFFF" d="M16.079,7.451"/>
			</g>
		</g>
	</g>
</g>
<path opacity="0.3" d="M-8.5,80.656c0,8.164-6.68,14.844-14.844,14.844h-65.312c-8.165,0-14.844-6.68-14.844-14.844V15.344
	C-103.5,7.18-96.821,0.5-88.656,0.5h65.312C-15.18,0.5-8.5,7.18-8.5,15.344V80.656z"/>
<g>
	<g>
		<g>
			<g>
				<path fill="#FFFFFF" d="M-89.47,73.837c0-0.178,0.037-0.216,0.212-0.216h6.863c0.176,0,0.214,0.039,0.214,0.216v2.064
					c0,0.174-0.039,0.219-0.214,0.219h-4.248v2.515h3.546c0.176,0,0.214,0.039,0.214,0.212v2.027c0,0.178-0.038,0.217-0.214,0.217
					h-3.546v3.898c0,0.178-0.042,0.214-0.217,0.214h-2.398c-0.176,0-0.212-0.037-0.212-0.214V73.837z"/>
				<path fill="#FFFFFF" d="M-80.871,81.091c-0.174,0-0.214-0.039-0.214-0.217v-2.027c0-0.174,0.041-0.212,0.214-0.212h3.509
					c0.177,0,0.213,0.039,0.213,0.212v2.027c0,0.178-0.037,0.217-0.213,0.217H-80.871z"/>
				<path fill="#FFFFFF" d="M-73.209,76.781c0,0.759,0.45,0.916,2.184,1.424c2.478,0.723,3.392,1.678,3.392,3.606
					c0,2.515-2.105,3.589-4.503,3.589c-1.365,0-2.67-0.391-3.413-0.802c-0.114-0.06-0.174-0.114-0.174-0.272v-1.521
					c0-0.135,0.039-0.174,0.155-0.174c0.253,0,1.776,0.429,3.238,0.429c1.306,0,1.913-0.317,1.913-1.092
					c0-0.779-0.547-0.996-2.087-1.403c-2.594-0.704-3.471-1.658-3.471-3.589c0-2.281,1.831-3.55,4.076-3.55
					c1.306,0,2.36,0.276,3.373,0.802c0.135,0.077,0.174,0.114,0.174,0.272v1.523c0,0.135-0.077,0.174-0.174,0.174
					c-0.331,0-1.697-0.431-3.216-0.431C-72.8,75.766-73.209,76.174-73.209,76.781z"/>
				<path fill="#FFFFFF" d="M-63.731,81.578c0.097,1.249,0.781,1.599,2.281,1.599c1.5,0,2.632-0.371,2.905-0.371
					c0.118,0,0.178,0.021,0.178,0.178v1.442c0,0.174-0.083,0.21-0.218,0.271c-0.819,0.354-1.989,0.706-3.392,0.706
					c-2.862,0-4.523-1.307-4.523-4.505c0-3.025,1.639-4.662,4.409-4.662c3.118,0,4.094,1.871,4.094,4.407v0.723
					c0,0.174-0.039,0.214-0.216,0.214H-63.731z M-63.751,80.019h3.121c0-1.27-0.41-1.774-1.461-1.774
					C-63.051,78.244-63.692,78.749-63.751,80.019z"/>
				<path fill="#FFFFFF" d="M-52.461,76.234c1.113,0,2.225,0.333,2.963,0.683c0.178,0.077,0.193,0.12,0.193,0.293v1.399
					c0,0.099-0.016,0.178-0.135,0.178c-0.273,0-1.326-0.331-2.553-0.331c-1.521,0-2.087,0.82-2.087,2.364
					c0,1.539,0.566,2.356,2.087,2.356c1.227,0,2.358-0.371,2.63-0.371c0.12,0,0.139,0.075,0.139,0.174v1.446
					c0,0.174-0.02,0.21-0.193,0.293c-0.742,0.348-1.931,0.683-3.044,0.683c-3.025,0-4.407-1.875-4.407-4.581
					C-56.868,78.105-55.486,76.234-52.461,76.234z"/>
				<path fill="#FFFFFF" d="M-43.649,85.401c-2.396,0-4.21-0.766-4.21-3.574v-5.225c0-0.178,0.039-0.216,0.213-0.216h2.339
					c0.178,0,0.216,0.039,0.216,0.216v4.857c0,1.192,0.39,1.716,1.579,1.716c0.489,0,0.974-0.02,1.347-0.058v-6.516
					c0-0.178,0.037-0.216,0.212-0.216h2.341c0.174,0,0.214,0.039,0.214,0.216v8.093c0,0.178-0.02,0.197-0.154,0.236
					C-40.702,85.204-42.242,85.401-43.649,85.401z"/>
				<path fill="#FFFFFF" d="M-33.394,78.517c-0.506,0-0.992,0.058-1.286,0.174v6.299c0,0.178-0.039,0.214-0.214,0.214h-2.337
					c-0.176,0-0.218-0.037-0.218-0.214v-7.801c0-0.137,0.06-0.195,0.178-0.234c1.054-0.408,2.165-0.721,3.412-0.721
					c0.742,0,1.463,0.06,2.104,0.255c0.116,0.039,0.137,0.077,0.137,0.193v1.757c0,0.174-0.056,0.195-0.176,0.195
					C-32.006,78.635-32.517,78.517-33.394,78.517z"/>
				<path fill="#FFFFFF" d="M-28.265,81.578c0.097,1.249,0.781,1.599,2.281,1.599c1.503,0,2.636-0.371,2.907-0.371
					c0.12,0,0.176,0.021,0.176,0.178v1.442c0,0.174-0.079,0.21-0.214,0.271c-0.817,0.354-1.991,0.706-3.394,0.706
					c-2.866,0-4.522-1.307-4.522-4.505c0-3.025,1.639-4.662,4.407-4.662c3.12,0,4.095,1.871,4.095,4.407v0.723
					c0,0.174-0.041,0.214-0.214,0.214H-28.265z M-28.282,80.019h3.118c0-1.27-0.406-1.774-1.461-1.774
					C-27.581,78.244-28.226,78.749-28.282,80.019z"/>
			</g>
		</g>
	</g>
	<path fill="#FFFFFF" d="M-27.186,19.979c-0.163,0.899-0.845,4.546-2.503,9.911c-0.651,2.109-2.944,3.208-4.993,2.513
		c-12.159-4.125-25.789-5.286-41.412-0.549c-2.82,0.856-4.217,3.205-4.008,5.068c0.008,0.099-0.037,0.133-0.066,0.062
		c-1.67-3.986-3.043-8.35-3.987-12.177c-0.617-2.509,0.333-5.483,3.854-6.558c16.506-5.039,35.173-4.76,52.943,1.44
		C-27.289,19.714-27.155,19.805-27.186,19.979z M-68.49,31.461c-2.056,0.437-4.894,1.104-7,1.826
		c-4.238,1.448-4.061,6.606-1.783,8.257c0.153-0.96,1.176-2.259,2.316-2.7c4.26-1.646,8.784-2.665,13.39-3.056
		C-63.89,34.834-66.189,33.475-68.49,31.461z M-34.72,41.815c-12.267-5.872-27.02-6.297-39.189-1.565c-2,0.779-3.274,3.229-2,5.559
		c2.033,3.715,4.581,7.666,7.488,11.44c-0.4-1.39,0.311-3.968,3.032-4.805c7.482-2.308,15.366-1.332,20.611,0.785
		c1.484,0.599,3.553,0.246,4.739-1.525c2.594-3.865,4.931-8.518,5.445-9.565C-34.523,41.999-34.593,41.877-34.72,41.815z
		 M-46.9,60.306c-1.333-0.383-4.658-2.994-5.943-4.281c-0.813-0.815-2.004-1.977-3.272-3.367c-2.857,0-5.651,0.297-8.629,1.237
		c-2.739,0.864-3.006,4.076-1.805,5.721c2.057,2.542,3.477,3.933,5.766,6.295c2.391,2.46,6.646,2.526,9.103,0.052
		c1.79-1.803,2.888-2.984,4.905-5.271C-46.665,60.563-46.701,60.362-46.9,60.306z"/>
</g>
<path fill="#FFFFFF" d="M47.471,10.318c-15.891,0-28.777,12.882-28.777,28.775c0,15.893,12.887,28.777,28.777,28.777
	c15.892,0,28.777-12.884,28.777-28.777C76.248,23.2,63.362,10.318,47.471,10.318z M50.693,26.146l0.527,0.416l-0.23,1.132
	c0,0,0.72,1.732,0.762,1.708c0.047-0.022,0.367,0.508,0.367,0.508l-0.551,0.555l-1.569,0.717l0.047-1.62
	c0,0,0.228-0.136,0.276-0.136c0.042,0,0.113-0.462,0.113-0.462l-0.071-0.9l-0.46-0.415L50.693,26.146z M48.937,29.219l0.255-0.465
	l0.506,0.186l-0.022,1.11c0,0-0.807,0.323-0.853,0.323c0,0-0.189-1.04-0.209-1.04C48.592,29.333,48.937,29.219,48.937,29.219z
	 M47.162,18.282c-0.151,0.205-0.4,0.536-0.551,0.74c-0.151,0.203-0.402,0.535-0.557,0.738c-0.149,0.205-0.398,0.534-0.555,0.738
	c-0.151,0.205-0.4,0.536-0.555,0.738c-0.149,0.205-0.4,0.538-0.553,0.737c-0.153,0.206-0.402,0.539-0.554,0.742
	c-0.152,0.206-0.401,0.539-0.555,0.738c-0.152,0.203-0.357,0.333-0.458,0.282c-0.103-0.045-0.267-0.119-0.359-0.169
	c-0.104-0.048-0.265-0.122-0.369-0.167c-0.097-0.051-0.259-0.125-0.361-0.171c-0.099-0.049-0.261-0.125-0.363-0.17
	c-0.099-0.048-0.259-0.125-0.359-0.172c-0.027-0.011-0.062-0.027-0.099-0.042c-0.28-0.058-0.932,0.006-1.332,0.461
	c-0.344,0.384-0.651,0.844-0.462,1.429c0.191,0.59,0.811,0.954,1.056,1.154c0.251,0.205,0.651,0.534,0.902,0.734
	c0.248,0.202,0.286,0.612,0.079,0.91c-0.2,0.295-0.533,0.785-0.74,1.083c-0.201,0.296-0.533,0.784-0.738,1.081
	c-0.201,0.297-0.533,0.784-0.738,1.082c-0.199,0.297-0.535,0.783-0.738,1.08c-0.203,0.301-0.535,0.788-0.738,1.084
	c-0.205,0.298-0.537,0.786-0.74,1.084c-0.201,0.297-0.537,0.783-0.738,1.081c-0.203,0.299-0.411,0.54-0.462,0.54
	c-0.05,0-0.135,0-0.186,0c-0.046,0-0.132,0-0.186,0c-0.046,0-0.135,0-0.188,0c-0.046,0-0.13,0-0.182,0c-0.048,0-0.135,0-0.182,0
	c-0.05,0-0.134,0-0.188,0c-0.048,0-0.134,0-0.184,0s-0.134,0.005-0.184,0.007c-0.05,0.004-0.136,0.009-0.184,0.012
	c-0.05,0.006-0.134,0.01-0.188,0.012c-0.05,0.007-0.132,0.013-0.188,0.015c-0.046,0.005-0.128,0.012-0.178,0.015
	c-0.054,0.003-0.134,0.009-0.186,0.013c-0.049,0.006-0.132,0.011-0.186,0.012c-0.051,0.005-0.134,0.008-0.182,0.014
	c-0.053,0.003-0.097,0.091-0.101,0.192c-0.002,0.102-0.006,0.267-0.008,0.368c-0.008,0.098-0.012,0.265-0.014,0.364
	c-0.002,0.104-0.006,0.269-0.014,0.367c-0.002,0.103-0.008,0.27-0.01,0.372c-0.002,0.099-0.009,0.265-0.013,0.365
	c-0.002,0.101-0.006,0.265-0.012,0.367c-0.002,0.101-0.008,0.264-0.01,0.367c-0.006,0.1-0.049,0.143-0.091,0.091
	c-0.047-0.052-0.126-0.134-0.172-0.187c-0.047-0.049-0.124-0.133-0.17-0.184c-0.049-0.053-0.124-0.133-0.169-0.188
	c-0.048-0.052-0.121-0.133-0.17-0.185c-0.05-0.051-0.124-0.132-0.174-0.188c-0.043-0.047-0.12-0.131-0.164-0.184
	c-0.047-0.05-0.126-0.134-0.176-0.185c-0.043-0.052-0.12-0.097-0.174-0.097c-0.051-0.001-0.14-0.002-0.191-0.002
	c-0.051,0-0.134-0.002-0.186-0.002c-0.051,0-0.138-0.003-0.193-0.004c-0.051,0-0.132-0.002-0.186-0.003
	c-0.049,0-0.136,0-0.189-0.001c-0.047,0-0.136,0-0.189,0c-0.049-0.003-0.134-0.004-0.188-0.004c-0.049-0.002-0.132,0.08-0.186,0.178
	c-0.053,0.103-0.134,0.264-0.186,0.367c-0.047,0.098-0.134,0.261-0.184,0.363c-0.051,0.097-0.134,0.26-0.186,0.359
	c-0.047,0.103-0.132,0.265-0.184,0.363c-0.053,0.104-0.134,0.265-0.186,0.364c-0.051,0.101-0.128,0.264-0.184,0.363
	c-0.051,0.099-0.134,0.262-0.186,0.361c-0.051,0.105-0.091,0.225-0.089,0.276c0,0.053,0.006,0.137,0.01,0.187
	c0.002,0.05,0.004,0.137,0.006,0.19c0.002,0.049,0.007,0.135,0.009,0.185c0.002,0.052,0.01,0.14,0.01,0.189
	c0.002,0.049,0.008,0.135,0.01,0.186c0,0.055,0.008,0.139,0.01,0.19c0.004,0.051,0.006,0.135,0.008,0.187
	c0.002,0.05,0.128,0.095,0.274,0.092c0.152,0,0.396-0.003,0.547-0.003c0.151-0.002,0.398-0.002,0.549-0.004
	c0.146,0,0.395-0.003,0.543-0.003c0.149,0,0.395-0.004,0.548-0.004c0.148-0.003,0.392-0.003,0.541-0.006
	c0.154,0,0.399-0.003,0.549-0.003c0.15-0.003,0.396-0.003,0.545-0.003c0.152-0.003,0.481,0.118,0.736,0.273
	c0.251,0.155,0.669,0.403,0.922,0.556c0.255,0.153,0.669,0.4,0.92,0.554c0.257,0.154,0.673,0.4,0.928,0.555
	c0.253,0.151,0.669,0.4,0.924,0.553c0.255,0.153,0.669,0.401,0.922,0.554c0.257,0.152,0.669,0.402,0.926,0.555
	c0.257,0.155,0.669,0.402,0.922,0.554c0.254,0.158,0.377,0.487,0.276,0.74c-0.099,0.254-0.269,0.668-0.369,0.923
	c-0.104,0.255-0.271,0.668-0.373,0.922c-0.104,0.257-0.271,0.673-0.369,0.926c-0.104,0.256-0.274,0.669-0.371,0.923
	c-0.106,0.254-0.272,0.671-0.375,0.926c-0.099,0.252-0.267,0.668-0.373,0.923c-0.101,0.254-0.265,0.669-0.371,0.921
	c-0.101,0.258-0.184,0.671-0.184,0.918c0,0.248,0,0.657,0,0.904c0,0.25,0,0.66,0,0.905c0,0.25,0,0.654,0,0.903
	c0,0.252,0,0.658,0,0.907c0,0.249,0,0.655,0,0.905c0,0.249,0,0.658,0,0.904c0,0.25,0,0.656,0,0.907c0,0.25-0.046,0.432-0.099,0.402
	c0,0,0,0-0.048-0.022c-0.049-0.026-0.049-0.026-0.049-0.026c-0.052-0.025-0.137-0.074-0.192-0.102c0,0,0,0-0.043-0.022
	c-0.05-0.028-0.05-0.028-0.05-0.028c-0.055-0.026-0.142-0.073-0.195-0.098c0,0,0,0-0.045-0.026
	c-0.048-0.027-0.048-0.027-0.048-0.027c-0.051-0.029-0.142-0.079-0.193-0.105c0,0,0,0-0.043-0.029
	c-0.05-0.024-0.05-0.024-0.05-0.024c-0.049-0.03-0.18-0.114-0.29-0.189c-0.11-0.075-0.29-0.202-0.396-0.275
	c-0.114-0.071-0.288-0.196-0.4-0.27c-0.107-0.074-0.289-0.201-0.396-0.272c-0.114-0.075-0.29-0.199-0.398-0.274
	c-0.112-0.073-0.292-0.195-0.4-0.273c-0.11-0.074-0.288-0.192-0.396-0.269c-0.11-0.074-0.29-0.199-0.398-0.275
	c-0.108-0.071-0.201-0.138-0.203-0.14c0,0,0,0-0.004-0.004c-0.002-0.001-0.002-0.001-0.002-0.001
	c-0.01-0.007-0.014-0.012-0.02-0.015c0,0,0,0,0-0.002C32.714,57.8,32.714,57.8,32.714,57.8c-0.006-0.004-0.01-0.012-0.013-0.013
	c0,0,0,0-0.006-0.005c-0.002-0.008-0.002-0.008-0.002-0.008c-0.006,0-0.012-0.009-0.016-0.01c0,0,0,0-0.002-0.005
	c-0.004-0.005-0.004-0.005-0.004-0.005c-0.006-0.003-0.053-0.209-0.101-0.461c-0.054-0.251-0.138-0.662-0.189-0.915
	c-0.054-0.248-0.138-0.658-0.188-0.909c-0.05-0.254-0.132-0.662-0.186-0.912c-0.052-0.251-0.14-0.663-0.189-0.912
	c-0.05-0.25-0.136-0.662-0.186-0.915c-0.048-0.25-0.136-0.66-0.186-0.911c-0.054-0.252-0.139-0.659-0.186-0.911
	c-0.054-0.252-0.217-0.456-0.367-0.456c-0.146,0-0.387,0-0.537,0c-0.147,0-0.387,0-0.533,0c-0.147,0-0.393,0-0.538,0
	c-0.146,0-0.39,0-0.537,0c-0.148,0-0.393,0-0.537,0c-0.148,0-0.389,0-0.539,0c-0.147,0-0.389,0-0.534,0
	c-0.15,0-0.282-0.021-0.297-0.048c0,0,0,0-0.008-0.025c-0.016-0.022-0.016-0.022-0.016-0.022c-0.012-0.026-0.031-0.068-0.047-0.094
	c0,0,0,0-0.007-0.026c-0.014-0.023-0.014-0.023-0.014-0.023c-0.01-0.025-0.035-0.069-0.047-0.094c0,0,0,0-0.01-0.024
	c-0.012-0.025-0.012-0.025-0.012-0.025c-0.012-0.027-0.036-0.069-0.046-0.097c0,0,0,0-0.012-0.024
	c-0.012-0.022-0.012-0.022-0.012-0.022c-0.008-0.028-0.056-0.155-0.099-0.289c-0.042-0.13-0.112-0.343-0.152-0.478
	c-0.047-0.131-0.116-0.347-0.158-0.48c-0.039-0.128-0.11-0.342-0.153-0.474c-0.04-0.134-0.11-0.349-0.154-0.482
	c-0.047-0.127-0.114-0.339-0.154-0.473c-0.043-0.135-0.112-0.351-0.151-0.478c-0.046-0.133-0.114-0.346-0.154-0.479
	c-0.047-0.132-0.039-0.32,0.014-0.419c0.054-0.104,0.139-0.268,0.184-0.365c0.054-0.103,0.139-0.265,0.191-0.368
	c0.048-0.096,0.133-0.26,0.188-0.362c0.05-0.102,0.133-0.265,0.188-0.368c0.048-0.096,0.133-0.262,0.188-0.363
	c0.05-0.099,0.133-0.265,0.186-0.366c0.05-0.097,0.133-0.263,0.189-0.361c0.048-0.104,0.024-0.319-0.062-0.486
	c-0.079-0.165-0.216-0.431-0.294-0.595c-0.085-0.164-0.222-0.435-0.303-0.598c-0.08-0.165-0.217-0.434-0.3-0.599
	c-0.081-0.165-0.213-0.432-0.298-0.598c-0.085-0.162-0.215-0.431-0.296-0.599c-0.087-0.165-0.222-0.433-0.301-0.594
	c-0.084-0.167-0.219-0.436-0.306-0.599c-0.081-0.166-0.112-0.631-0.071-1.036c0,0,0.107-1.034,0.271-1.899
	c0.166-0.858,0.435-1.82,0.435-1.82c0.106-0.39,0.31-1.024,0.44-1.408c0,0,0.317-0.931,0.663-1.714
	c0.348-0.782,0.806-1.626,0.806-1.626c0.193-0.356,0.526-0.933,0.738-1.275c0,0,0.505-0.815,1.01-1.49
	c0.5-0.68,1.126-1.393,1.126-1.393c0.268-0.308,0.718-0.793,0.998-1.087c0,0,0.662-0.676,1.299-1.229
	c0.638-0.554,1.404-1.117,1.404-1.117c0.086-0.062,0.186-0.11,0.282-0.142c0.428-0.237,1.303-0.946,1.303-0.946l1.865-0.978
	l1.374-0.64l1.373-0.581c0,0,1.343-0.343,1.484-0.358c0.104-0.055,0.282-0.121,0.397-0.144c0.114-0.022,0.304-0.057,0.418-0.079
	c0.11-0.023,0.3-0.057,0.415-0.079c0.116-0.026,0.302-0.061,0.416-0.081c0.116-0.022,0.302-0.059,0.414-0.081
	c0.117-0.02,0.303-0.056,0.417-0.078c0.118-0.021,0.302-0.056,0.419-0.08c0.11-0.022,0.3-0.055,0.416-0.078
	c0.114-0.024,0.249-0.044,0.304-0.049c0,0,0,0,0.042-0.007c0.051-0.001,0.051-0.001,0.051-0.001
	c0.052-0.004,0.135-0.013,0.189-0.017c0,0,0,0,0.046-0.001c0.049-0.004,0.049-0.004,0.049-0.004c0.05-0.001,0.139-0.005,0.191-0.008
	c0,0,0,0,0.046-0.004c0.051-0.003,0.051-0.003,0.051-0.003c0.05,0,0.137-0.007,0.189-0.008c0,0,0,0,0.05-0.002
	c0.044-0.001,0.044-0.001,0.044-0.001c0.053-0.003,0.136,0.018,0.181,0.047c0.05,0.025,0.127,0.071,0.176,0.1
	c0.046,0.025,0.123,0.072,0.168,0.1c0.048,0.029,0.126,0.074,0.176,0.104c0.044,0.025,0.12,0.07,0.172,0.097
	c0.045,0.028,0.124,0.076,0.168,0.103c0.051,0.028,0.126,0.073,0.174,0.101c0.049,0.026,0.124,0.072,0.173,0.102
	C47.403,17.889,47.316,18.08,47.162,18.282z M70.423,40.518c-0.004,0.125-0.01,0.329-0.016,0.454c0,0,0,0-0.008,0.115
	c-0.006,0.11-0.006,0.11-0.006,0.11c-0.006,0.123-0.021,0.322-0.028,0.447c0,0,0,0-0.01,0.112c-0.008,0.111-0.008,0.111-0.008,0.111
	c-0.012,0.125-0.031,0.321-0.043,0.446c0,0,0,0-0.01,0.111c-0.016,0.112-0.016,0.112-0.016,0.112
	c-0.011,0.121-0.04,0.231-0.062,0.244c-0.023,0.009-0.062,0.027-0.081,0.04c-0.023,0.007-0.056,0.03-0.077,0.041
	c-0.023,0.013-0.062,0.029-0.079,0.04c-0.025,0.013-0.062,0.032-0.085,0.042c-0.02,0.011-0.057,0.03-0.078,0.042
	c-0.024,0.009-0.058,0.028-0.085,0.038c-0.017,0.009-0.052,0.029-0.079,0.04c-0.02,0.013-0.116-0.021-0.224-0.074
	c-0.099-0.046-0.266-0.135-0.365-0.188c-0.104-0.047-0.268-0.136-0.369-0.185c-0.103-0.05-0.273-0.138-0.369-0.19
	c-0.101-0.047-0.27-0.135-0.371-0.185c-0.101-0.052-0.27-0.137-0.369-0.189c-0.103-0.047-0.268-0.137-0.368-0.187
	c-0.107-0.049-0.272-0.137-0.371-0.188c-0.104-0.047-0.271-0.135-0.371-0.186c-0.104-0.052-0.274-0.139-0.376-0.189
	c-0.104-0.045-0.273-0.133-0.379-0.187c-0.103-0.05-0.27-0.134-0.373-0.187c-0.103-0.05-0.274-0.137-0.379-0.188
	c-0.101-0.051-0.269-0.136-0.369-0.187c-0.104-0.053-0.276-0.138-0.375-0.19c-0.106-0.046-0.274-0.137-0.375-0.184
	c-0.108-0.052-0.191-0.012-0.188,0.091c0,0.101,0,0.27,0.006,0.372c0,0.103,0.004,0.269,0.008,0.373
	c0,0.103,0.002,0.271,0.006,0.372c0,0.104,0.002,0.269,0.002,0.37c0,0.104,0.006,0.272,0.007,0.373c0,0.103,0.004,0.27,0.01,0.372
	c0,0.104,0.002,0.272,0.004,0.372c0,0.104,0.124,0.229,0.28,0.282c0.151,0.048,0.4,0.13,0.553,0.185
	c0.151,0.046,0.404,0.131,0.555,0.184c0.151,0.047,0.4,0.131,0.551,0.186c0.155,0.047,0.402,0.131,0.559,0.186
	c0.149,0.049,0.398,0.129,0.557,0.187c0.147,0.045,0.398,0.127,0.551,0.182c0.149,0.05,0.402,0.131,0.554,0.183
	c0.152,0.052,0.194,0.218,0.091,0.369c-0.103,0.156-0.271,0.402-0.373,0.557c-0.103,0.151-0.27,0.4-0.371,0.556
	c-0.103,0.151-0.27,0.398-0.373,0.552c-0.103,0.152-0.27,0.401-0.373,0.557c-0.101,0.153-0.271,0.4-0.375,0.552
	c-0.097,0.156-0.264,0.402-0.371,0.555c-0.101,0.151-0.266,0.402-0.373,0.554c-0.099,0.153-0.182,0.403-0.182,0.556
	c0,0.151,0,0.396,0,0.551c0.004,0.15,0.006,0.398,0.006,0.551c0,0.15,0.004,0.396,0.004,0.552c0,0.149,0.002,0.396,0.002,0.551
	c0,0.15,0.001,0.4,0.001,0.553c0.002,0.15,0.002,0.398,0.002,0.549c0,0.154,0.004,0.399,0.004,0.553
	c0.002,0.152-0.077,0.357-0.178,0.457s-0.269,0.262-0.365,0.362c-0.101,0.103-0.265,0.266-0.365,0.364
	c-0.101,0.102-0.263,0.267-0.365,0.363c-0.099,0.102-0.257,0.27-0.363,0.364c-0.099,0.102-0.263,0.266-0.361,0.364
	c-0.099,0.102-0.263,0.264-0.365,0.362c-0.099,0.105-0.263,0.267-0.361,0.366c-0.103,0.099-0.225,0.225-0.278,0.276
	c-0.049,0.05-0.138,0.138-0.188,0.188c-0.049,0.052-0.138,0.14-0.188,0.189c-0.049,0.054-0.134,0.142-0.186,0.193
	c-0.053,0.054-0.138,0.138-0.191,0.189c-0.047,0.053-0.136,0.14-0.186,0.19c-0.053,0.054-0.136,0.14-0.188,0.19
	c-0.053,0.054-0.138,0.139-0.188,0.191c-0.051,0.051-0.176,0.011-0.276-0.087c-0.104-0.104-0.271-0.271-0.369-0.372
	c-0.106-0.1-0.271-0.268-0.369-0.37c-0.103-0.1-0.271-0.267-0.373-0.372c-0.101-0.098-0.265-0.265-0.367-0.366
	c-0.101-0.101-0.267-0.269-0.373-0.369c-0.101-0.102-0.265-0.268-0.365-0.372c-0.103-0.097-0.269-0.267-0.373-0.369
	c-0.099-0.1-0.186-0.223-0.186-0.272c0-0.051,0-0.132-0.002-0.182c0-0.054-0.002-0.134-0.002-0.183c0-0.051-0.002-0.131-0.006-0.184
	c0-0.049,0-0.13,0-0.181c0-0.052-0.004-0.134-0.008-0.181c0-0.052,0-0.13,0-0.184c0-0.05-0.002-0.13-0.004-0.184
	c0-0.048-0.083-0.215-0.188-0.368c-0.103-0.151-0.267-0.402-0.369-0.551c-0.103-0.156-0.269-0.401-0.373-0.554
	c-0.103-0.155-0.271-0.402-0.377-0.556c-0.095-0.152-0.263-0.402-0.367-0.557c-0.103-0.152-0.271-0.399-0.375-0.553
	c-0.103-0.152-0.271-0.402-0.367-0.554c-0.104-0.155-0.274-0.401-0.377-0.554c-0.101-0.152-0.308-0.276-0.46-0.276
	c-0.15-0.004-0.398-0.004-0.551-0.004c-0.15-0.005-0.398-0.005-0.551-0.005c-0.15-0.001-0.4-0.001-0.553-0.001
	c-0.154-0.004-0.4-0.004-0.553-0.004c-0.154-0.003-0.4-0.003-0.553-0.003c-0.149-0.001-0.398-0.001-0.551-0.001
	c-0.149-0.003-0.398-0.003-0.549-0.003c-0.149-0.004-0.357-0.045-0.462-0.096c-0.101-0.048-0.261-0.132-0.365-0.185
	c-0.101-0.05-0.267-0.133-0.369-0.185c-0.097-0.049-0.26-0.134-0.365-0.188c-0.101-0.047-0.262-0.129-0.364-0.182
	c-0.102-0.05-0.269-0.133-0.367-0.184c-0.098-0.051-0.265-0.135-0.367-0.187c-0.099-0.05-0.269-0.133-0.365-0.184
	c-0.101-0.051-0.186-0.216-0.186-0.368c0-0.15-0.004-0.397-0.01-0.55c0-0.148,0-0.396-0.004-0.548c0-0.15-0.003-0.396-0.003-0.548
	c0-0.151-0.006-0.397-0.008-0.549c0-0.147-0.002-0.399-0.006-0.549c0-0.151-0.002-0.398-0.004-0.549c0-0.149-0.008-0.395-0.01-0.548
	c0-0.15,0.044-0.361,0.095-0.465c0.05-0.102,0.135-0.274,0.188-0.378c0.044-0.102,0.137-0.274,0.186-0.376
	c0.05-0.105,0.137-0.275,0.189-0.378c0.05-0.106,0.135-0.275,0.186-0.378c0.05-0.104,0.135-0.275,0.191-0.377
	c0.048-0.106,0.135-0.277,0.188-0.38c0.048-0.104,0.131-0.275,0.182-0.379c0.056-0.106,0.139-0.226,0.189-0.279
	c0.048-0.047,0.131-0.127,0.182-0.177c0.048-0.05,0.131-0.128,0.182-0.181c0.046-0.048,0.131-0.128,0.18-0.176
	c0.052-0.05,0.131-0.132,0.184-0.18c0.048-0.052,0.131-0.131,0.18-0.179c0.054-0.05,0.133-0.132,0.184-0.18
	c0.05-0.046,0.133-0.131,0.182-0.18c0.05-0.047,0.133-0.09,0.184-0.094c0.058-0.001,0.141-0.004,0.191-0.004
	c0.054-0.001,0.139-0.003,0.193-0.006c0.054-0.003,0.135-0.005,0.188-0.008c0.052-0.001,0.137-0.004,0.191-0.004
	c0.054-0.001,0.137-0.005,0.195-0.006c0.05-0.001,0.133-0.004,0.189-0.006c0.05-0.001,0.135-0.005,0.189-0.005
	c0.054-0.001,0.133-0.042,0.186-0.094c0.048-0.053,0.133-0.133,0.178-0.18c0.052-0.052,0.135-0.133,0.182-0.185
	c0.052-0.048,0.135-0.131,0.182-0.181c0.054-0.05,0.139-0.131,0.186-0.182c0.048-0.051,0.131-0.132,0.184-0.183
	c0.048-0.052,0.131-0.134,0.18-0.184c0.046-0.048,0.131-0.129,0.182-0.181c0.05-0.05,0.176-0.047,0.274,0.003
	c0.097,0.05,0.267,0.138,0.365,0.188c0.103,0.049,0.269,0.138,0.367,0.188c0.101,0.05,0.267,0.138,0.367,0.186
	c0.099,0.05,0.267,0.14,0.363,0.188c0.103,0.05,0.271,0.137,0.371,0.188c0.097,0.05,0.263,0.136,0.363,0.189
	c0.106,0.049,0.271,0.137,0.367,0.187c0.103,0.05,0.269,0.095,0.369,0.095c0.106,0.001,0.274,0.001,0.371,0.002
	c0.106,0.002,0.274,0.002,0.373,0.003c0.106,0.004,0.272,0.004,0.377,0.005c0.104,0,0.271,0,0.367,0.001
	c0.106,0.003,0.274,0.003,0.373,0.004c0.108,0.001,0.272,0.001,0.375,0.004c0.104,0,0.272,0,0.369,0.001
	c0.104,0.004,0.229,0,0.282-0.001c0.051,0,0.136-0.004,0.184-0.005c0.053-0.003,0.136-0.004,0.186-0.005
	c0.049-0.004,0.132-0.007,0.188-0.008c0.049-0.001,0.13-0.003,0.184-0.007c0.047-0.001,0.136-0.004,0.184-0.004
	c0.049-0.001,0.134-0.003,0.186-0.006c0.053-0.003,0.134-0.005,0.184-0.008c0.051-0.001,0.134-0.04,0.186-0.09
	c0.049-0.045,0.134-0.128,0.184-0.172c0.053-0.05,0.138-0.132,0.188-0.177c0.045-0.049,0.132-0.13,0.184-0.178
	c0.051-0.046,0.134-0.13,0.182-0.178c0.051-0.046,0.138-0.127,0.186-0.174c0.051-0.05,0.136-0.128,0.189-0.177
	c0.049-0.046,0.13-0.127,0.182-0.177c0.051-0.044,0.051-0.17,0-0.274c-0.052-0.106-0.133-0.271-0.182-0.373
	c-0.054-0.105-0.139-0.273-0.189-0.378c-0.048-0.102-0.135-0.27-0.186-0.374c-0.048-0.106-0.131-0.272-0.182-0.376
	c-0.052-0.103-0.139-0.271-0.184-0.378c-0.05-0.101-0.135-0.268-0.188-0.374c-0.05-0.104-0.135-0.27-0.184-0.374
	c-0.052-0.103-0.133-0.186-0.186-0.186c-0.048,0.001-0.129,0.001-0.182,0.002c-0.048,0.002-0.135,0.002-0.178,0.003
	c-0.052,0.001-0.132,0.001-0.186,0.001c-0.048,0.001-0.132,0.001-0.182,0.005c-0.05,0.001-0.13,0.001-0.182,0.003
	c-0.05,0.001-0.132,0.001-0.184,0.001c-0.047,0.004-0.132,0.004-0.18,0.006c-0.049,0-0.136,0-0.188,0
	c-0.055-0.002-0.138-0.002-0.191-0.006c-0.054,0-0.143,0-0.197-0.001c-0.048-0.002-0.135-0.002-0.191-0.003
	c-0.052-0.004-0.137-0.004-0.193-0.005c-0.052,0-0.137,0-0.195-0.001c-0.052-0.001-0.139-0.001-0.193-0.003
	c-0.052-0.001-0.137-0.001-0.191-0.002c-0.054,0-0.098,0.078-0.098,0.18c0,0.101,0,0.265-0.002,0.364
	c0,0.101-0.002,0.263-0.004,0.365c0,0.1,0,0.259-0.004,0.362c0,0.103,0,0.262-0.002,0.363c0,0.101-0.006,0.262-0.008,0.366
	c0,0.097,0,0.26-0.002,0.363c0,0.1,0,0.26-0.002,0.365c0,0.099-0.039,0.179-0.093,0.179c-0.053,0-0.138,0-0.186,0
	c-0.053,0-0.136,0-0.189,0c-0.055,0-0.14,0-0.188,0c-0.053,0-0.14,0-0.189,0c-0.049,0-0.138,0-0.186,0c-0.051,0-0.138,0-0.189,0
	c-0.049,0-0.134,0-0.188,0c-0.05,0-0.091-0.042-0.091-0.089c0.002-0.049,0.004-0.129,0.004-0.179s0.002-0.131,0.002-0.181
	c0.002-0.047,0.002-0.127,0.002-0.177c0-0.05,0.002-0.131,0.002-0.182c0.002-0.045,0.002-0.127,0.002-0.179
	c0.004-0.048,0.004-0.128,0.004-0.178c0.002-0.049,0.002-0.128,0.002-0.178c0.002-0.05-0.035-0.089-0.083-0.089
	c-0.053,0-0.134,0-0.182,0c-0.049,0-0.13,0-0.178,0c-0.051,0-0.132,0-0.183,0c-0.046,0-0.127,0-0.176,0c-0.052,0-0.133,0-0.182,0
	c-0.044,0-0.127,0-0.178,0c-0.052,0-0.129,0-0.18,0c-0.046,0-0.15,0-0.231,0s-0.211,0-0.286,0c-0.083,0-0.211,0-0.29,0
	c-0.083,0-0.213,0-0.29,0c-0.083,0-0.209,0-0.284,0c-0.083,0-0.217,0-0.292,0c-0.083,0-0.21,0-0.29,0c-0.081,0-0.21,0-0.29,0
	c-0.083,0-0.162,0-0.184,0c-0.019,0-0.06,0-0.079,0c-0.024,0-0.062,0-0.081,0c-0.023,0-0.06,0-0.081,0c-0.027,0-0.06,0-0.081,0
	c-0.025,0-0.058,0-0.079,0c-0.029,0-0.062,0-0.081,0c-0.025,0-0.061,0-0.083,0c-0.023,0-0.085,0.041-0.132,0.091
	c-0.054,0.051-0.138,0.134-0.186,0.187c-0.052,0.05-0.138,0.135-0.186,0.182c-0.05,0.051-0.136,0.135-0.188,0.186
	c-0.048,0.051-0.134,0.133-0.186,0.186c-0.048,0.053-0.134,0.134-0.18,0.183c-0.054,0.053-0.138,0.135-0.188,0.186
	c-0.049,0.054-0.134,0.136-0.186,0.185c-0.05,0.052-0.13,0.095-0.178,0.095c-0.051,0.002-0.134,0.002-0.182,0.005
	c-0.047,0.002-0.13,0.002-0.176,0.004c-0.051,0.001-0.132,0.001-0.18,0.001c-0.051,0.001-0.134,0.001-0.18,0.003
	c-0.051,0.001-0.13,0.001-0.18,0.003c-0.051,0.001-0.132,0.001-0.179,0.004c-0.05,0-0.131,0-0.18,0.001
	c-0.05,0.002-0.135-0.039-0.18-0.089c-0.052-0.047-0.141-0.128-0.188-0.18c-0.054-0.046-0.135-0.125-0.186-0.176
	c-0.048-0.05-0.133-0.131-0.186-0.179c-0.048-0.05-0.135-0.131-0.189-0.181c-0.042-0.049-0.129-0.129-0.18-0.178
	c-0.052-0.05-0.129-0.132-0.184-0.178c-0.05-0.049-0.133-0.132-0.186-0.182c-0.048-0.047-0.05-0.131,0-0.184
	c0.049-0.054,0.134-0.14,0.184-0.194c0.045-0.052,0.13-0.142,0.182-0.193c0.047-0.054,0.132-0.142,0.178-0.194
	c0.051-0.053,0.134-0.139,0.186-0.194c0.047-0.054,0.134-0.141,0.179-0.194c0.052-0.053,0.135-0.139,0.184-0.192
	c0.048-0.052,0.133-0.14,0.182-0.193c0.05-0.05,0.133-0.095,0.184-0.095c0.048,0,0.131,0,0.182,0c0.048,0,0.131,0,0.182,0
	c0.046,0,0.131,0,0.18,0c0.052,0,0.131,0,0.184,0c0.048,0,0.131,0,0.18,0c0.054,0,0.133,0,0.184,0c0.05,0,0.133,0,0.182,0
	c0.05,0,0.091-0.045,0.091-0.094c0-0.049,0-0.134,0-0.186c0-0.048,0-0.132,0-0.185c0-0.05,0-0.135,0-0.184c0-0.053,0-0.136,0-0.185
	c0-0.051,0-0.135,0-0.185c0-0.052,0-0.136,0-0.186s0-0.134,0-0.188c0-0.048,0.042-0.132,0.091-0.181
	c0.054-0.052,0.141-0.135,0.188-0.188c0.054-0.048,0.139-0.129,0.189-0.185c0.056-0.049,0.139-0.131,0.186-0.183
	c0.056-0.051,0.137-0.132,0.191-0.185c0.05-0.052,0.137-0.134,0.189-0.184c0.046-0.052,0.133-0.136,0.186-0.186
	c0.05-0.051,0.133-0.136,0.188-0.185c0.052-0.051,0.137-0.136,0.188-0.187c0.05-0.05,0.133-0.134,0.186-0.184
	c0.048-0.053,0.129-0.137,0.182-0.186c0.05-0.05,0.135-0.133,0.189-0.184c0.044-0.05,0.131-0.136,0.184-0.184
	c0.046-0.052,0.131-0.135,0.186-0.188c0.046-0.049,0.127-0.134,0.182-0.183c0.048-0.05,0.133-0.135,0.186-0.186
	c0.048-0.05,0.135-0.094,0.186-0.094c0.05,0,0.139,0,0.186,0c0.054,0,0.137,0,0.189,0c0.052,0,0.137,0,0.186,0
	c0.054,0,0.137,0,0.188,0c0.052,0,0.139,0,0.191,0c0.05,0,0.133,0,0.186,0c0.052,0,0.135,0,0.189,0c0.05,0,0.218-0.042,0.373-0.093
	c0.15-0.048,0.399-0.134,0.553-0.184c0.152-0.048,0.401-0.135,0.553-0.186c0.15-0.048,0.399-0.132,0.555-0.185
	c0.15-0.049,0.399-0.134,0.555-0.184c0.15-0.053,0.399-0.135,0.555-0.186c0.15-0.049,0.399-0.132,0.555-0.184
	c0.152-0.051,0.398-0.134,0.553-0.186c0.15-0.049,0.276-0.133,0.276-0.185c0-0.052,0-0.134,0-0.184c0-0.052,0-0.133,0-0.188
	c0-0.048,0-0.131,0-0.185c0-0.05,0-0.132,0-0.183c0-0.052,0-0.134,0-0.185s0-0.134,0-0.184c0-0.053,0-0.136,0-0.187
	s-0.045-0.136-0.093-0.186c-0.055-0.05-0.138-0.133-0.186-0.184c-0.059-0.052-0.14-0.134-0.189-0.186
	c-0.053-0.05-0.136-0.133-0.189-0.185c-0.052-0.051-0.136-0.134-0.189-0.183c-0.05-0.05-0.132-0.137-0.186-0.186
	c-0.05-0.052-0.138-0.135-0.186-0.188c-0.052-0.048-0.139-0.133-0.189-0.184c-0.054-0.049-0.135-0.049-0.186,0
	c-0.052,0.05-0.139,0.135-0.182,0.184c-0.052,0.052-0.138,0.135-0.189,0.188c-0.05,0.048-0.134,0.135-0.182,0.186
	c-0.054,0.048-0.138,0.131-0.186,0.183s-0.139,0.134-0.188,0.185c-0.046,0.051-0.132,0.133-0.184,0.186
	c-0.052,0.05-0.134,0.133-0.186,0.184c-0.052,0.049-0.138,0.135-0.182,0.186c-0.052,0.05-0.138,0.133-0.189,0.187
	c-0.047,0.049-0.134,0.133-0.182,0.184c-0.052,0.05-0.136,0.132-0.186,0.185c-0.051,0.05-0.136,0.132-0.182,0.183
	c-0.053,0.053-0.14,0.136-0.188,0.185c-0.051,0.054-0.134,0.135-0.186,0.188c-0.051,0.049-0.132,0.131-0.186,0.184
	c-0.051,0.051-0.134,0.052-0.188,0c-0.049-0.049-0.134-0.129-0.186-0.179c-0.052-0.052-0.134-0.132-0.186-0.185
	c-0.054-0.05-0.14-0.128-0.189-0.181c-0.05-0.051-0.138-0.131-0.188-0.18c-0.052-0.053-0.136-0.133-0.188-0.184
	c-0.05-0.052-0.135-0.133-0.188-0.18c-0.052-0.054-0.135-0.132-0.191-0.186c-0.046-0.05-0.091-0.131-0.091-0.183s0-0.134,0-0.182
	c0-0.053,0-0.136,0-0.188c0-0.05,0-0.134,0-0.185c0-0.05,0-0.136,0-0.186c0-0.047,0-0.133,0-0.184c0-0.051,0-0.137,0-0.186
	c0-0.049,0-0.134,0-0.186c0-0.049,0-0.135,0-0.184c0-0.049,0.006-0.135,0.006-0.183c0-0.052,0.002-0.135,0.002-0.187
	c0.002-0.052,0.002-0.134,0.002-0.184c0-0.05,0.002-0.136,0.002-0.186c0.004-0.049,0.004-0.132,0.004-0.184
	c0.002-0.051,0.002-0.135,0.002-0.188c0-0.049,0-0.13,0-0.185c0.006-0.048,0.091-0.173,0.191-0.278
	c0.103-0.1,0.267-0.267,0.367-0.369c0.103-0.104,0.271-0.271,0.373-0.374c0.104-0.103,0.265-0.271,0.367-0.373
	c0.104-0.101,0.267-0.269,0.371-0.373c0.101-0.103,0.269-0.269,0.367-0.371c0.103-0.102,0.269-0.269,0.371-0.374
	c0.103-0.102,0.265-0.27,0.371-0.37c0.101-0.103,0.184-0.246,0.184-0.313c0-0.073,0-0.189,0-0.26c0-0.072,0-0.188,0-0.261
	c0-0.068,0-0.186,0-0.256c0-0.07,0-0.188,0-0.26c0-0.071,0-0.184,0-0.255c0-0.072,0-0.189,0-0.259c0-0.072,0-0.187,0-0.258
	c0-0.071,0.298,0.012,0.669,0.18c0,0,1.362,0.638,2.317,1.213c0.951,0.578,2.126,1.474,2.126,1.474
	c0.326,0.248,0.837,0.669,1.146,0.937c0,0,1.104,0.977,1.848,1.799c0.75,0.817,1.621,2.014,1.621,2.014
	c0.242,0.326,0.611,0.878,0.827,1.222c0,0,0.791,1.261,1.279,2.268c0.483,1.008,0.992,2.443,0.992,2.443
	c0.135,0.385,0.336,1.018,0.438,1.411c0,0,0.406,1.488,0.578,2.634c0.178,1.145,0.241,2.772,0.241,2.772
	c0.016,0.407,0.027,0.843,0.027,0.969c0,0,0,0-0.002,0.113C70.423,40.518,70.423,40.518,70.423,40.518z"/>
</svg>
