<?xml version="1.0" encoding="utf-8"?>
<!-- Generator: Adobe Illustrator 15.0.0, SVG Export Plug-In . SVG Version: 6.00 Build 0)  -->
<!DOCTYPE svg PUBLIC "-//W3C//DTD SVG 1.1 Basic//EN" "http://www.w3.org/Graphics/SVG/1.1/DTD/svg11-basic.dtd">
<svg version="1.1" baseProfile="basic" xmlns="http://www.w3.org/2000/svg" xmlns:xlink="http://www.w3.org/1999/xlink" x="0px"
	 y="0px" width="1387px" height="207.436px" viewBox="-14.699 -4.938 1387 207.436" xml:space="preserve">
<g id="Layer_1">
</g>
<g id="containers_3">
	<g>
		<linearGradient id="SVGID_1_" gradientUnits="userSpaceOnUse" x1="1076.3105" y1="16.4417" x2="1076.3105" y2="186.0596">
			<stop  offset="0" style="stop-color:#F1F9F8"/>
			<stop  offset="1" style="stop-color:#D2EBF3"/>
		</linearGradient>
		<polygon fill="url(#SVGID_1_)" points="1056.703,33.729 1056.703,33.813 1012.826,15.85 1012.826,-4.15 1004.773,-4.1
			1004.773,12.209 967.658,-4.188 872.191,33.813 872.191,33.729 780.32,33.729 780.32,201.749 896.287,201.749 896.309,201.749
			1068.844,201.749 1068.855,201.749 1372.301,201.749 1372.301,33.729 		"/>
		<polygon fill="#313131" points="780.32,161.749 780.32,201.749 894.18,201.749 894.201,201.749 1066.736,201.749
			1066.748,201.749 1372.301,201.749 1372.301,161.749 		"/>
	</g>
	<g>
		<g>

				<linearGradient id="SVGID_2_" gradientUnits="userSpaceOnUse" x1="536.1675" y1="-203.6233" x2="536.1675" y2="-32.7711" gradientTransform="matrix(1 0 0 1 -241.2383 219.4653)">
				<stop  offset="0" style="stop-color:#ECE4D9"/>
				<stop  offset="1" style="stop-color:#EACA94"/>
			</linearGradient>
			<polygon fill="url(#SVGID_2_)" points="410.843,33.063 388.662,33.063 344.784,15.1 344.784,-4.9 336.731,-4.85 336.731,11.46
				299.616,-4.938 204.149,33.063 179.016,33.063 179.016,201.084 347.04,201.084 347.051,201.084 410.843,201.084 			"/>

				<linearGradient id="SVGID_3_" gradientUnits="userSpaceOnUse" x1="536.1675" y1="-203.6233" x2="536.1675" y2="-32.7711" gradientTransform="matrix(1 0 0 1 -241.2383 219.4653)">
				<stop  offset="0" style="stop-color:#ECE4D9"/>
				<stop  offset="1" style="stop-color:#EACA94"/>
			</linearGradient>
			<polygon fill="url(#SVGID_3_)" points="179.016,162.498 179.016,202.498 347.04,202.498 347.051,202.498 410.843,202.498
				410.843,162.498 			"/>
		</g>
		<g>
			<linearGradient id="SVGID_4_" gradientUnits="userSpaceOnUse" x1="294.9292" y1="15.7004" x2="294.9292" y2="185.3879">
				<stop  offset="0" style="stop-color:#F1F9F8"/>
				<stop  offset="1" style="stop-color:#D2EBF3"/>
			</linearGradient>
			<polygon fill="url(#SVGID_4_)" points="410.843,33.063 388.662,33.063 344.784,15.1 344.784,-4.9 336.731,-4.85 336.731,11.46
				299.616,-4.938 204.149,33.063 179.016,33.063 179.016,201.084 347.04,201.084 347.051,201.084 410.843,201.084 			"/>
			<polygon fill="#313131" points="179.016,162.498 179.016,202.498 347.04,202.498 347.051,202.498 410.843,202.498
				410.843,162.498 			"/>
		</g>
	</g>
	<g>
		<g>
			<linearGradient id="SVGID_5_" gradientUnits="userSpaceOnUse" x1="595.5239" y1="15.842" x2="595.5239" y2="186.6942">
				<stop  offset="0" style="stop-color:#ECE4D9"/>
				<stop  offset="1" style="stop-color:#EACA94"/>
			</linearGradient>
			<polygon fill="url(#SVGID_5_)" points="770.748,33.063 645.137,33.063 601.259,15.1 601.259,-4.9 593.207,-4.85 593.207,11.46
				556.091,-4.938 460.625,33.063 420.301,33.063 420.301,201.084 588.325,201.084 588.336,201.084 770.748,201.084 			"/>
			<linearGradient id="SVGID_6_" gradientUnits="userSpaceOnUse" x1="595.5239" y1="15.842" x2="595.5239" y2="186.6942">
				<stop  offset="0" style="stop-color:#ECE4D9"/>
				<stop  offset="1" style="stop-color:#EACA94"/>
			</linearGradient>
			<polygon fill="url(#SVGID_6_)" points="420.301,162.498 420.301,202.498 588.325,202.498 588.336,202.498 770.748,202.498
				770.748,162.498 			"/>
		</g>
		<g>
			<linearGradient id="SVGID_7_" gradientUnits="userSpaceOnUse" x1="595.5239" y1="15.7004" x2="595.5239" y2="185.3879">
				<stop  offset="0" style="stop-color:#F1F9F8"/>
				<stop  offset="1" style="stop-color:#D2EBF3"/>
			</linearGradient>
			<polygon fill="url(#SVGID_7_)" points="770.748,33.063 645.137,33.063 601.259,15.1 601.259,-4.9 593.207,-4.85 593.207,11.46
				556.091,-4.938 460.625,33.063 420.301,33.063 420.301,201.084 588.325,201.084 588.336,201.084 770.748,201.084 			"/>
			<polygon fill="#313131" points="420.301,162.498 420.301,202.498 588.325,202.498 588.336,202.498 770.748,202.498
				770.748,162.498 			"/>
		</g>
	</g>
	<g>
		<linearGradient id="SVGID_8_" gradientUnits="userSpaceOnUse" x1="77.5571" y1="16.408" x2="77.5571" y2="186.095">
			<stop  offset="0" style="stop-color:#F1F9F8"/>
			<stop  offset="1" style="stop-color:#D2EBF3"/>
		</linearGradient>
		<polygon fill="url(#SVGID_8_)" points="125.936,15.808 125.936,-4.192 117.883,-4.142 117.883,12.167 80.768,-4.23
			-14.699,33.771 -14.699,36.808 -14.699,201.791 128.191,201.791 128.202,201.791 169.813,201.791 169.813,36.808 169.813,33.771
					"/>
		<polygon fill="#313131" points="-14.699,161.791 -14.699,201.791 128.191,201.791 128.202,201.791 169.813,201.791
			169.813,161.791 		"/>
	</g>
</g>
</svg>
