<?xml version="1.0" encoding="utf-8"?>
<!-- Generator: Adobe Illustrator 17.0.0, SVG Export Plug-In . SVG Version: 6.00 Build 0)  -->
<!DOCTYPE svg PUBLIC "-//W3C//DTD SVG 1.1//EN" "http://www.w3.org/Graphics/SVG/1.1/DTD/svg11.dtd">
<svg version="1.1" id="Layer_1" xmlns="http://www.w3.org/2000/svg" xmlns:xlink="http://www.w3.org/1999/xlink" x="0px" y="0px"
	 width="96px" height="96px" viewBox="0 0 96 96" enable-background="new 0 0 96 96" xml:space="preserve">
<rect x="-2.327" y="-2.136" opacity="0.5" fill="#29ABE2" enable-background="new    " width="100" height="99.618"/>
<g>
	<polyline fill="none" stroke="#FFFFFF" stroke-width="2.7024" stroke-linecap="round" stroke-linejoin="round" points="
		72.323,39.812 72.323,66.605 24.507,66.605 24.507,39.812 	"/>
	
		<line fill="none" stroke="#FFFFFF" stroke-width="2.3981" stroke-linecap="round" stroke-linejoin="round" stroke-miterlimit="10" x1="40.588" y1="55.409" x2="28.323" y2="63.016"/>
	
		<line fill="none" stroke="#FFFFFF" stroke-width="2.3981" stroke-linecap="round" stroke-linejoin="round" stroke-miterlimit="10" x1="68.587" y1="62.883" x2="56.811" y2="55.513"/>
	<g>
		
			<polyline fill="none" stroke="#FFFFFF" stroke-width="2.6853" stroke-linecap="round" stroke-linejoin="round" stroke-miterlimit="10" points="
			56.796,27.364 48.527,21.328 40.258,27.364 		"/>
		
			<line fill="none" stroke="#FFFFFF" stroke-width="4.4756" stroke-linejoin="round" stroke-miterlimit="10" x1="40.258" y1="27.364" x2="56.796" y2="27.364"/>
		<polyline fill="none" stroke="#FFFFFF" stroke-width="4.4756" stroke-linejoin="round" stroke-miterlimit="10" points="
			40.258,27.364 33.242,27.364 33.242,32.485 		"/>
		
			<line fill="none" stroke="#FFFFFF" stroke-width="4.4756" stroke-linejoin="round" stroke-miterlimit="10" x1="33.242" y1="32.485" x2="33.242" y2="45.205"/>
		<polyline fill="none" stroke="#FFFFFF" stroke-width="4.4756" stroke-linejoin="round" stroke-miterlimit="10" points="
			63.812,32.485 63.812,27.364 56.796,27.364 		"/>
		
			<line fill="none" stroke="#FFFFFF" stroke-width="4.4756" stroke-linejoin="round" stroke-miterlimit="10" x1="63.812" y1="45.205" x2="63.812" y2="32.485"/>
		
			<polyline fill="none" stroke="#FFFFFF" stroke-width="3" stroke-linecap="round" stroke-linejoin="round" stroke-miterlimit="10" points="
			33.242,32.485 24.595,39.078 48.642,56.13 72.201,38.82 63.812,32.485 		"/>
	</g>
</g>
</svg>
