<?xml version="1.0" encoding="utf-8"?>
<!-- Generator: Adobe Illustrator 17.0.0, SVG Export Plug-In . SVG Version: 6.00 Build 0)  -->
<!DOCTYPE svg PUBLIC "-//W3C//DTD SVG 1.1//EN" "http://www.w3.org/Graphics/SVG/1.1/DTD/svg11.dtd">
<svg version="1.1" id="Layer_1" xmlns="http://www.w3.org/2000/svg" xmlns:xlink="http://www.w3.org/1999/xlink" x="0px" y="0px"
	 width="96px" height="96px" viewBox="0 0 96 96" enable-background="new 0 0 96 96" xml:space="preserve">
<g id="Layer_1_1_">
</g>
<g>
	<g id="Isolation_Mode_1_">
		<g>
			<path fill="#0078A5" d="M48,94.652C22.043,94.652,1,73.764,1,48C1,22.237,22.043,1.348,48,1.348S95,22.238,95,48
				C95,73.764,73.957,94.652,48,94.652z"/>
		</g>
	</g>
	<g>
		<circle fill="none" stroke="#FFFFFF" stroke-width="3" stroke-miterlimit="10" cx="47.583" cy="42.754" r="6.484"/>
		<path fill="none" stroke="#FFFFFF" stroke-width="5" stroke-linejoin="round" stroke-miterlimit="10" d="M63.539,42.754
			c0-8.812-7.144-15.956-15.956-15.956s-15.956,7.144-15.956,15.956c0,2.491,0.574,4.847,1.593,6.945
			c0.357,0.736,14.404,25.727,14.404,25.727s13.877-24.842,14.209-25.497C62.923,47.771,63.54,45.336,63.539,42.754z"/>
	</g>
</g>
</svg>