<?xml version="1.0" encoding="utf-8"?>
<!-- Generator: Adobe Illustrator 17.0.0, SVG Export Plug-In . SVG Version: 6.00 Build 0)  -->
<!DOCTYPE svg PUBLIC "-//W3C//DTD SVG 1.1//EN" "http://www.w3.org/Graphics/SVG/1.1/DTD/svg11.dtd">
<svg version="1.1" id="Layer_1" xmlns="http://www.w3.org/2000/svg" xmlns:xlink="http://www.w3.org/1999/xlink" x="0px" y="0px"
	 width="159.953px" height="55.554px" viewBox="0 0 159.953 55.554" enable-background="new 0 0 159.953 55.554"
	 xml:space="preserve">
<g>
	<g>
		<path fill="#0078A5" d="M3.085,8.054c0-0.694,0.567-1.26,1.26-1.26h8.865c0.693,0,1.26,0.566,1.26,1.26v32.853
			c0,0.694,0.567,1.26,1.26,1.26h14.746c0.694,0,1.26,0.567,1.26,1.26v7.49c0,0.693-0.566,1.26-1.26,1.26H4.345
			c-0.693-0.001-1.26-0.568-1.26-1.261V8.054z"/>
		<path fill="#0078A5" d="M68.838,34.986c0,10.391-7.641,17.954-18.26,17.954c-10.62,0-18.184-7.563-18.184-18.106
			c0-10.238,7.717-17.802,18.184-17.802C61.197,17.031,68.838,24.595,68.838,34.986 M43.319,34.986c0,5.195,2.903,8.633,7.258,8.633
			c4.507,0,7.334-3.439,7.334-8.71c0-5.119-2.903-8.556-7.334-8.556C46.222,26.352,43.319,29.79,43.319,34.986"/>
		<path fill="#0078A5" d="M81.372,50.916c0,0.693-0.567,1.26-1.26,1.26h-8.33c-0.693,0-1.26-0.567-1.26-1.26V1.483
			c0.002-0.693,0.568-1.26,1.261-1.26h8.33c0.694,0,1.26,0.567,1.26,1.26L81.372,50.916L81.372,50.916z M82.436,34.592
			c-0.375-0.583-0.35-1.518,0.057-2.08l9.909-13.697c0.406-0.562,1.306-1.02,1.998-1.02h10.086c0.694,0,0.913,0.449,0.489,0.996
			L94.445,32.385c-0.424,0.548-0.459,1.47-0.079,2.048l10.992,16.692c0.381,0.578,0.125,1.052-0.567,1.052h-9.781
			c-0.693,0-1.567-0.476-1.941-1.059L82.436,34.592z"/>
		<path fill="#0078A5" d="M117.739,50.916c0,0.693-0.567,1.26-1.26,1.26h-8.329c-0.693,0-1.26-0.567-1.26-1.26V1.483
			c0-0.692,0.567-1.26,1.26-1.26h8.329c0.693,0,1.26,0.567,1.26,1.26V50.916z M118.803,34.592c-0.375-0.583-0.349-1.519,0.057-2.08
			l9.906-13.696c0.406-0.563,1.306-1.021,1.998-1.021h10.087c0.693,0,0.913,0.448,0.489,0.996l-10.53,13.593
			c-0.424,0.548-0.459,1.47-0.079,2.048l10.992,16.692c0.381,0.578,0.125,1.052-0.567,1.052h-9.781
			c-0.693,0-1.567-0.476-1.942-1.059L118.803,34.592z"/>
		<path fill="#0078A5" d="M154.868,7.482c0,3.361-2.826,6.189-6.265,6.189c-3.361,0-6.187-2.827-6.187-6.189
			c0-3.44,2.749-6.265,6.187-6.265C152.042,1.217,154.868,4.042,154.868,7.482 M154.104,50.916c0,0.693-0.567,1.26-1.26,1.26h-8.329
			c-0.693,0-1.26-0.567-1.26-1.26V19.054c0-0.693,0.567-1.26,1.26-1.26h8.329c0.693,0,1.26,0.567,1.26,1.26L154.104,50.916
			L154.104,50.916z"/>
	</g>
	<g>
		<path fill="#FFFFFF" d="M3.085,10.054c0-0.694,0.567-1.26,1.26-1.26h8.865c0.693,0,1.26,0.566,1.26,1.26v32.853
			c0,0.694,0.567,1.26,1.26,1.26h14.746c0.694,0,1.26,0.567,1.26,1.26v7.49c0,0.693-0.566,1.26-1.26,1.26H4.345
			c-0.693-0.001-1.26-0.568-1.26-1.261V10.054z"/>
		<path fill="#FFFFFF" d="M68.838,36.986c0,10.391-7.641,17.954-18.26,17.954c-10.62,0-18.184-7.563-18.184-18.106
			c0-10.238,7.717-17.802,18.184-17.802C61.197,19.031,68.838,26.595,68.838,36.986 M43.319,36.986c0,5.195,2.903,8.633,7.258,8.633
			c4.507,0,7.334-3.439,7.334-8.71c0-5.119-2.903-8.556-7.334-8.556C46.222,28.352,43.319,31.79,43.319,36.986"/>
		<path fill="#FFFFFF" d="M81.372,52.916c0,0.693-0.567,1.26-1.26,1.26h-8.33c-0.693,0-1.26-0.567-1.26-1.26V3.483
			c0.002-0.693,0.568-1.26,1.261-1.26h8.33c0.694,0,1.26,0.567,1.26,1.26L81.372,52.916L81.372,52.916z M82.436,36.592
			c-0.375-0.583-0.35-1.518,0.057-2.08l9.909-13.697c0.406-0.562,1.306-1.02,1.998-1.02h10.086c0.694,0,0.913,0.449,0.489,0.996
			L94.445,34.385c-0.424,0.548-0.459,1.47-0.079,2.048l10.992,16.692c0.381,0.578,0.125,1.052-0.567,1.052h-9.781
			c-0.693,0-1.567-0.476-1.941-1.059L82.436,36.592z"/>
		<path fill="#FFFFFF" d="M117.739,52.916c0,0.693-0.567,1.26-1.26,1.26h-8.329c-0.693,0-1.26-0.567-1.26-1.26V3.483
			c0-0.692,0.567-1.26,1.26-1.26h8.329c0.693,0,1.26,0.567,1.26,1.26V52.916z M118.803,36.592c-0.375-0.583-0.349-1.519,0.057-2.08
			l9.906-13.696c0.406-0.563,1.306-1.021,1.998-1.021h10.087c0.693,0,0.913,0.448,0.489,0.996l-10.53,13.593
			c-0.424,0.548-0.459,1.47-0.079,2.048l10.992,16.692c0.381,0.578,0.125,1.052-0.567,1.052h-9.781
			c-0.693,0-1.567-0.476-1.942-1.059L118.803,36.592z"/>
		<path fill="#FFFFFF" d="M154.868,9.482c0,3.361-2.826,6.189-6.265,6.189c-3.361,0-6.187-2.827-6.187-6.189
			c0-3.44,2.749-6.265,6.187-6.265C152.042,3.217,154.868,6.042,154.868,9.482 M154.104,52.916c0,0.693-0.567,1.26-1.26,1.26h-8.329
			c-0.693,0-1.26-0.567-1.26-1.26V21.054c0-0.693,0.567-1.26,1.26-1.26h8.329c0.693,0,1.26,0.567,1.26,1.26L154.104,52.916
			L154.104,52.916z"/>
	</g>
</g>
</svg>
