<?xml version="1.0" encoding="utf-8"?>
<!-- Generator: Adobe Illustrator 15.0.0, SVG Export Plug-In . SVG Version: 6.00 Build 0)  -->
<!DOCTYPE svg PUBLIC "-//W3C//DTD SVG 1.1//EN" "http://www.w3.org/Graphics/SVG/1.1/DTD/svg11.dtd">
<svg version="1.1" id="Layer_1" xmlns="http://www.w3.org/2000/svg" xmlns:xlink="http://www.w3.org/1999/xlink" x="0px" y="0px"
	 width="96px" height="96px" viewBox="0 0 96 96" enable-background="new 0 0 96 96" xml:space="preserve">
<ellipse fill="#40A4BF" cx="47.777" cy="47.816" rx="46.853" ry="46.802"/>
<path fill="#368A9E" d="M82.797,78.895c-4.17-4.283-10.146-7.748-17.24-9.929l0.004-0.011c-5.207-1.48-8.73-4.312-8.73-7.569
	c0-0.812,0.229-1.595,0.637-2.338l2.018,2.167c0.373,0.403,0.814,0.305,0.98-0.221l2.422-7.648c0.165-0.525,0.586-0.604,0.934-0.179
	l0.459,0.562c0.348,0.429,0.779,0.353,0.959-0.168l0.354-1.024c0.182-0.521,0.365-1.394,0.41-1.94l0.159-1.916
	c0.045-0.549-0.058-1.426-0.228-1.949l-0.332-1.017c-0.17-0.523-0.057-0.907,0.252-0.853c0.31,0.054,0.875,0.144,1.26,0.198
	c0.387,0.054,0.646-0.348,0.578-0.894l-0.635-5.239c-0.065-0.546-0.281-1.414-0.476-1.928l-0.688-1.826
	c-0.193-0.515-0.588-1.319-0.875-1.789l-0.771-1.261c-0.287-0.469-0.112-0.665,0.388-0.436l1.686,0.773
	c0.5,0.229,0.757-0.006,0.568-0.523l-1.207-3.351c-0.188-0.517-0.709-1.197-1.162-1.511l-3.688-2.562
	c-0.452-0.312-1.231-0.753-1.735-0.977l-0.318-0.142c-0.504-0.224-1.291-0.548-1.75-0.722c-0.459-0.174-0.738-0.573-0.623-0.888
	c0.115-0.315,0.625-0.396,1.131-0.179l3.867,1.656c0.507,0.216,0.645,0.039,0.307-0.395l-2.256-2.895
	c-0.34-0.434-1.021-0.979-1.521-1.212l-1.091-0.509c-0.498-0.233-1.354-0.446-1.905-0.474l-1.927-0.098
	c-0.55-0.028-1.375,0.196-1.835,0.499l-2.316,1.522c-0.458,0.302-1.287,0.554-1.834,0.56l-2.271,0.025
	c-0.55,0.006-1.428,0.151-1.95,0.322l-2.157,0.706c-0.522,0.171-1.331,0.552-1.795,0.846l-2.49,1.574
	c-0.465,0.294-1.144,0.871-1.509,1.282l-2.044,2.303c-0.365,0.412-0.868,1.149-1.119,1.639l-0.994,1.947
	c-0.25,0.49-0.034,0.732,0.481,0.539l0.982-0.37c0.515-0.193,0.692,0.026,0.393,0.488l-1.03,1.594
	c-0.299,0.462-0.739,1.245-0.978,1.74l-1.93,3.996c-0.239,0.495-0.559,1.333-0.711,1.862l-0.255,0.889
	c-0.152,0.529-0.306,1.41-0.343,1.959l-0.013,0.19c-0.037,0.549,0.359,0.854,0.88,0.679l0.649-0.219
	c0.521-0.175,0.864,0.124,0.762,0.664l-0.348,1.839c-0.102,0.54-0.233,1.43-0.292,1.979l-0.374,3.47
	c-0.058,0.547,0.262,0.735,0.712,0.419l1.634-1.146c0.45-0.315,0.726-0.136,0.613,0.402l-0.334,1.591
	c-0.113,0.538-0.114,1.419-0.003,1.958l0.648,3.129c0.111,0.539,0.407,0.578,0.656,0.088l1.598-3.139
	c0.25-0.49,0.508-0.445,0.575,0.102l0.24,1.953c0.067,0.547,0.232,1.43,0.368,1.961l0.046,0.186
	c0.136,0.531,0.366,1.254,0.513,1.604c0.146,0.348,0.349,0.19,0.451-0.35l0.015-0.08c0.102-0.54,0.345-1.402,0.54-1.917l0.047-0.124
	c0.125-0.33,0.424-0.646,0.761-0.865c0.885,1.049,1.396,2.199,1.396,3.414c0,3.192-3.393,5.973-8.43,7.477l0.014,0.052
	c-7.31,2.218-13.448,5.792-17.662,10.223c8.576,9.507,20.994,15.483,34.812,15.483C61.71,94.618,74.215,88.537,82.797,78.895z"/>
<g>
	
		<path fill="none" stroke="#FFFFFF" stroke-width="5" stroke-linecap="round" stroke-miterlimit="10" stroke-dasharray="7.7554,15.5107" d="
		M48,88.743C25.498,88.743,7.257,70.499,7.257,48S25.498,7.257,48,7.257c22.5,0,40.743,18.244,40.743,40.743S70.5,88.743,48,88.743z
		"/>
</g>
</svg>
