<?xml version="1.0" encoding="utf-8"?>
<!-- Generator: Adobe Illustrator 17.0.0, SVG Export Plug-In . SVG Version: 6.00 Build 0)  -->
<!DOCTYPE svg PUBLIC "-//W3C//DTD SVG 1.1//EN" "http://www.w3.org/Graphics/SVG/1.1/DTD/svg11.dtd">
<svg version="1.1" id="Layer_1" xmlns="http://www.w3.org/2000/svg" xmlns:xlink="http://www.w3.org/1999/xlink" x="0px" y="0px"
	 width="96px" height="96px" viewBox="0 0 96 96" enable-background="new 0 0 96 96" xml:space="preserve">
<rect x="-2.327" y="-2.136" opacity="0.5" fill="#29ABE2" enable-background="new    " width="100" height="99.618"/>
<g>
	
		<path fill="none" stroke="#FFFFFF" stroke-width="4.4744" stroke-linecap="round" stroke-linejoin="round" stroke-miterlimit="10" d="
		M44.977,19.047c-1.251-0.56-2.634-0.877-4.093-0.877c-5.549,0-10.048,4.499-10.048,10.048c0,0.763,0.093,1.503,0.254,2.218
		c-2.891,1.423-4.886,4.39-4.886,7.83c0,3.535,2.104,6.572,5.125,7.946c-1.194,1.327-1.927,3.078-1.927,5.003
		c0,4.137,3.354,7.491,7.491,7.491"/>
	
		<path fill="none" stroke="#FFFFFF" stroke-width="4.4744" stroke-linecap="round" stroke-linejoin="round" stroke-miterlimit="10" d="
		M51.022,19.047c1.251-0.56,2.634-0.877,4.093-0.877c5.549,0,10.048,4.499,10.048,10.048c0,0.763-0.093,1.503-0.254,2.218
		c2.891,1.423,4.886,4.39,4.886,7.83c0,3.535-2.104,6.572-5.125,7.946c1.194,1.327,1.927,3.078,1.927,5.003
		c0,4.137-3.354,7.491-7.491,7.491"/>
</g>
<g>
	<path fill="none" stroke="#FFFFFF" stroke-width="3" stroke-miterlimit="10" d="M52.959,64.06c-1.626-0.18-3.28-0.279-4.959-0.279
		c-1.68,0-3.334,0.099-4.96,0.279"/>
	<g>
		<path fill="none" stroke="#FFFFFF" stroke-width="3" stroke-linecap="round" stroke-miterlimit="10" d="M43.04,64.06
			c-9.311,1.031-17.649,4.922-23.922,10.68"/>
		<path fill="none" stroke="#FFFFFF" stroke-width="3" stroke-linecap="round" stroke-miterlimit="10" d="M52.959,64.06
			c9.311,1.031,17.65,4.922,23.923,10.68"/>
	</g>
	<path fill="none" stroke="#FFFFFF" stroke-width="3" stroke-miterlimit="10" d="M53.044,55.448
		c-1.589,1.093-3.38,1.722-5.283,1.722c-1.719,0-3.346-0.514-4.817-1.417"/>
	<path fill="none" stroke="#FFFFFF" stroke-width="3" stroke-miterlimit="10" d="M53.044,55.448c3.829-2.632,6.46-8.02,6.46-14.255
		c0-8.824-5.258-15.978-11.743-15.978c-6.486,0-11.743,7.154-11.743,15.978c0,6.486,2.845,12.057,6.926,14.561"/>
	<path fill="none" stroke="#FFFFFF" stroke-width="3" stroke-miterlimit="10" d="M53.044,55.448c0.05,1.146,0.081,2.318,0.081,3.521
		c0,1.76-0.061,3.46-0.165,5.09"/>
	<path fill="none" stroke="#FFFFFF" stroke-width="3" stroke-miterlimit="10" d="M42.944,55.753
		c-0.041,1.05-0.069,2.119-0.069,3.216c0,1.761,0.061,3.46,0.165,5.091"/>
</g>
</svg>
