<?xml version="1.0" encoding="utf-8"?>
<!-- Generator: Adobe Illustrator 15.0.0, SVG Export Plug-In . SVG Version: 6.00 Build 0)  -->
<!DOCTYPE svg PUBLIC "-//W3C//DTD SVG 1.1//EN" "http://www.w3.org/Graphics/SVG/1.1/DTD/svg11.dtd">
<svg version="1.1" id="Layer_1" xmlns="http://www.w3.org/2000/svg" xmlns:xlink="http://www.w3.org/1999/xlink" x="0px" y="0px"
	 width="96px" height="96px" viewBox="0 0 96 96" enable-background="new 0 0 96 96" xml:space="preserve">
<g>
	<g>
		<g>
			<path fill-opacity="0.3" d="M48,95C22.043,95,1,73.953,1,48C1,22.046,22.043,1,48,1c25.955,0,47,21.046,47,47
				C95,73.953,73.955,95,48,95z"/>
			<g>
				<path fill="none" stroke="#FFFFFF" stroke-width="5" stroke-linejoin="round" stroke-miterlimit="10" d="M58.836,44.707
					c0-5.85-4.741-10.592-10.593-10.592c-5.85,0-10.591,4.742-10.591,10.592c0,1.654,0.382,3.218,1.058,4.611
					c0.236,0.488,9.562,17.078,9.562,17.078s9.212-16.491,9.433-16.926C58.427,48.038,58.837,46.422,58.836,44.707z"/>
				<path fill="none" stroke="#FFFFFF" stroke-width="5" stroke-linecap="round" stroke-miterlimit="10" d="M31.464,34.24
					c-1.916,3.028-3.026,6.617-3.026,10.467c0.001,4.144,1.286,7.985,3.479,11.15"/>
				<path fill="none" stroke="#FFFFFF" stroke-width="5" stroke-linecap="round" stroke-miterlimit="10" d="M64.218,55.811
					c2.172-3.156,3.446-6.98,3.445-11.104c0-3.729-1.043-7.215-2.852-10.184"/>
				<path fill="none" stroke="#FFFFFF" stroke-width="5" stroke-linecap="round" stroke-miterlimit="10" d="M28.084,64.467"/>
				<path fill="none" stroke="#FFFFFF" stroke-width="5" stroke-linecap="round" stroke-miterlimit="10" d="M24.358,29.604
					c-2.788,4.362-4.403,9.544-4.402,15.104c0,5.868,1.799,11.314,4.877,15.819"/>
				<path fill="none" stroke="#FFFFFF" stroke-width="5" stroke-linecap="round" stroke-miterlimit="10" d="M71.248,60.556
					c3.09-4.511,4.897-9.968,4.897-15.849c0-5.422-1.539-10.485-4.201-14.777"/>
			</g>
		</g>
	</g>
	<circle fill="#FFFFFF" cx="48.431" cy="44.451" r="2.79"/>
</g>
</svg>
