<?xml version="1.0" encoding="utf-8"?>
<!-- Generator: Adobe Illustrator 15.0.0, SVG Export Plug-In . SVG Version: 6.00 Build 0)  -->
<!DOCTYPE svg PUBLIC "-//W3C//DTD SVG 1.1 Basic//EN" "http://www.w3.org/Graphics/SVG/1.1/DTD/svg11-basic.dtd">
<svg version="1.1" baseProfile="basic" xmlns="http://www.w3.org/2000/svg" xmlns:xlink="http://www.w3.org/1999/xlink" x="0px"
	 y="0px" width="166.691px" height="73.436px" viewBox="0 0 166.691 73.436" xml:space="preserve">
<g id="Layer_1">
</g>
<g id="Isolation_Mode">
	<g>
		<path fill="#EE4325" d="M164.884,34.398c-0.95-1.963-2.35-3.797-4.011-5.357l0.014,0.002l-5.326-7.75
			c-0.131-0.193-0.258-0.387-0.396-0.576l-0.078-0.117l0.006-0.145c-0.033-0.068-0.08-0.035-0.123,0.014
			c-1.807-2.373-4.213-3.812-6.854-5.099c-2.646-1.289-5.254-0.97-8.354-0.97h-1.314l0,0c-8,0-15.352,7.967-15.887,16.223
			c-0.088-0.088-0.02-0.223-0.11-0.223h0.278c0,0-2.672-4.132-4.875-7.046c-1.826-3.346-4.883-6.005-8.342-7.69
			c-2.647-1.289-5.254-1.264-8.354-1.264H100V13.27c-4,0.318-8.771,2.605-11.828,6.385c-2.303,2.846-3.694,6.268-4.054,9.75
			c-0.158-0.158-0.363-0.295-0.529-0.449l-3.995-5.582c-0.82-1.666-1.969-3.244-3.316-4.643l-0.05-0.064l0.01,0.029
			c-1.551-1.602-3.375-2.372-5.328-3.325c-2.647-1.289-5.255-0.97-8.356-0.97H61v-0.904c-4,0.305-7.588,2.184-10.682,5.436
			c0.08-1.834-0.151-3.283-1.137-4.818c-0.161-0.252-0.234-0.516-0.407-0.74l0.052-0.016L40.904,2.539
			c-0.008-0.008,0.057-0.021,0.049-0.029L41,2.475v0.004C40,1.094,39,0.238,37,0v1.4h-0.91c-1.816,0-3.125-0.53-4.795,0.538
			c-2.055,1.318-3.203,2.759-3.225,4.866c-0.098,1.877,0.252,3.139,1.252,4.699c0.778,1.217,1.719,2.039,2.825,2.572
			c-0.679,0.324-1.343,0.744-2.04,1.385C28.758,16.701,28,18.299,28,20.15v4.283c0,0-0.156-0.004-0.18-0.01l-2.7-6.002
			c-0.119-0.359-0.005-0.715-0.183-1.061C24.883,17.254,25,17.158,25,17.057v-0.064v0.012c-2-3.311-5.227-2.604-7.734-2.604h-1.818
			l0.277-0.563C7.725,14.474,0,21.898,0,30.635V42.92c0,1.918,1.678,3.789,2.48,4.533c1.443,1.932,4.022,5.602,5.759,8.029
			c0.432,0.947,1.104,2.562,1.67,3.147L9.863,59.4h0.01c0.496,0,0.893,0.063,0.902,0.071c1.127,0.959,2.701,1.042,4.412,1.042
			c3.506,0,7.311-2.502,7.604-6.367c0.174-2.281,0.119-4.686,0.068-6.916c-0.025-1.061-0.049-2.166-0.049-3.215
			c0-1.145,0-2.737,0.551-3.575c0.594-0.9,1.564-1.278,2.275-1.427c0.174-0.037,0.529-0.057,0.791-0.074
			c0.43-0.027,1.572-0.07,1.572-0.205v3.91c0,1.809,1.045,3.625,2.502,4.879l0,0l5.6,7.562c0.783,2.336,3.142,4.406,5.142,4.883
			c0.588,0.141,1.357,0.213,1.973,0.213c2.743-0.002,5.413-1.383,6.8-3.605C50.91,55.141,51,53.67,51,52.486v-2.754l3,5.262
			c0.291,1.137,0.817,2.271,1.972,3.396c1.199,1.168,2.744,1.787,4.518,1.787c1.52,0,3.077-0.469,4.405-1.32
			c2.852-1.828,3.211-4.42,3.211-6.477c0-0.838-0.009-1.674-0.013-2.512c-0.006-1.285-0.014-1.997-0.002-3.306
			c0.607,0.951,1.3,1.837,2.076,2.837h-0.011l5.32,6.919c0.055,0.117,0.102-0.063,0.164,0.054c1.131,2.113,2.607,3.311,4.434,3.746
			c0.672,0.16,1.322,0.105,1.805,0.105c0.229,0,0.479-0.043,0.707-0.049c0.186-0.006,0.416-0.028,0.6-0.028
			c2.265,0,4.861-2.313,5.645-3.55c0.6-0.949,1.17-2.037,1.17-3.305v-5.047c0-0.666-0.268-1.322-0.258-1.986
			c0.006-0.455-0.05-0.916-0.052-1.375l4.792,6.666l0.113-0.188c0.182,0.301,0.352,0.605,0.551,0.896
			c-0.291,0.668-0.479,1.396-0.487,2.195c-0.107,2.016,0.43,3.795,1.58,5.316l-0.333-0.002c0,0,8.094,11.467,8.094,11.354v-0.004
			c0,0.193,0.658,0.387,0.848,0.57c1.578,1.539,3.604,1.746,5.223,1.746c0.213,0,0.509-0.002,0.69-0.006
			c8.091,0,15.943-6.855,17.096-14.971c0.369-2.598,0.31-5.256,0.233-7.828c-0.031-1.027-0.051-2.045-0.051-3.047
			c0-0.568,0.01-1.131,0.017-1.695c0.004-0.264,0.007-0.531,0.009-0.797c1.584,1.822,3.756,4.635,5.289,6.666
			c0.488,0.82,1.092,1.623,1.785,2.389c0.049,0.066,0.078,0.107,0.078,0.107l0.008-0.014c1.904,2.074,4.438,3.859,7.072,4.873
			c1.912,0.734,3.938,1.107,6.023,1.107c5.214,0,10.441-2.381,13.98-6.387C167.012,48.504,168.027,40.881,164.884,34.398z
			 M46.85,24.844c-0.07-0.039-0.139-0.084-0.211-0.119c0.111-0.055,0.223-0.131,0.332-0.191
			C46.93,24.637,46.887,24.738,46.85,24.844z"/>
		<path fill="#FFFFFF" d="M17.266,15.232c2.592,0,4.316,0.561,5.588,3.047c1.057,2.062,0.721,4.713-1.135,6.23
			c-0.635,0.518-1.361,0.918-2.109,1.248c-0.74,0.328-1.63,0.207-2.428,0.373c-1.428,0.299-2.723,1.039-3.535,2.275
			c-0.857,1.303-0.881,3.127-0.881,4.652c0,3.252,0.234,6.592-0.012,9.836c-0.209,2.74-3.156,4.326-5.607,4.326
			c-1.094,0-2.066-0.223-2.92-0.949c-0.785-0.666-2.102-2.273-2.102-3.352c0-4.094,0-8.189,0-12.285
			C2.125,22.744,9.254,15.232,17.266,15.232C17.266,15.232,14.811,15.232,17.266,15.232z M36.09,1.932
			c1.602,0,2.85,0.998,3.682,2.297c0.807,1.258,1.039,2.252,0.957,3.705c0,1.602-0.998,2.852-2.298,3.682
			c-1.257,0.807-2.251,1.039-3.704,0.957c-1.602,0-2.852-0.996-3.682-2.295c-0.807-1.26-1.039-2.254-0.957-3.707
			c0-1.6,0.998-2.85,2.296-3.682C33.696,2.047,34.605,1.932,36.09,1.932C38.09,1.932,36.09,1.932,36.09,1.932z M36.09,15.232
			c1.322,0,2.441,0.695,3.246,1.713c0.531,0.674,1.393,1.854,1.393,2.74c0,1.148,0,2.297,0,3.445c0,4.352,0,8.705,0,13.057
			c0,1.693,0,3.385,0,5.078c0,1.162,0.074,2.303-0.574,3.344c-1.305,2.086-3.99,3.068-6.342,2.506
			c-1.732-0.414-3.725-2.646-3.725-4.471c0-5.438,0-10.875,0-16.312c0-2.061,0-4.121,0-6.182c0-1.281,0.467-2.379,1.418-3.252
			C32.926,15.592,34.263,15.232,36.09,15.232C38.09,15.232,36.09,15.232,36.09,15.232z M62.553,15.232
			c2.619,0,5.077,0.182,7.479,1.352c3.289,1.604,6.209,4.473,7.801,7.758c2.004,4.133,1.566,8.543,1.566,12.996
			c0,1.682,0,3.363,0,5.045c0,0.795-0.15,1.545-0.584,2.227c-0.639,1.01-2.5,2.611-3.76,2.611c-0.838,0-1.75,0.09-2.572-0.105
			c-1.49-0.355-2.525-1.598-3.221-2.893c-0.744-1.391-0.705-2.895-0.705-4.447c0-1.928,0-3.855,0-5.783
			c0-1.432,0.264-3.221-0.182-4.613c-0.76-2.373-3.393-3.502-5.686-3.371c-2.613,0-4.432,2.773-4.549,5.146
			c-0.168,3.436-0.088,6.879-0.088,10.318c0,2.043-0.439,3.602-2.297,4.791c-1.928,1.234-4.713,1.514-6.486-0.215
			c-2.096-2.041-1.857-4.018-1.857-6.643c0-2.695,0-5.391,0-8.086c0-3.201,0.691-6.141,2.531-8.816
			C52.773,18.393,57.426,15.232,62.553,15.232C62.553,15.232,60.098,15.232,62.553,15.232z M101.158,15.232
			c2.619,0,5.076,0.182,7.475,1.352c3.293,1.604,6.211,4.473,7.803,7.758c1.922,3.965,1.568,8.066,1.568,12.328
			c0,3.465,0.357,7.152-0.133,10.598c-0.996,7.018-7.957,13.252-15.076,13.252c-1.59,0.031-3.064,0.018-4.281-1.17
			c-1.381-1.346-1.969-2.959-1.857-4.832c0-2.43,2.42-4.102,4.547-4.576c1.457-0.328,2.689-0.344,3.92-1.256
			c0.643-0.477,1.694-1.236,1.694-2.146c-1.79,0.318-3.423,0.682-5.271,0.682c-1.91,0-3.762-0.287-5.533-1.025
			c-4.834-2.016-8.623-6.51-9.717-11.623C84.338,25.412,91.393,15.232,101.158,15.232C101.158,15.232,98.703,15.232,101.158,15.232z
			 M96.793,31.875c0,2.963,3.244,4.717,5.865,4.568c2.971,0,4.643-3.26,4.502-5.865c0-3.021-3.197-4.723-5.865-4.57
			c-1.566,0-2.781,0.984-3.582,2.26C96.91,29.545,96.793,30.439,96.793,31.875C96.793,33.83,96.793,31.875,96.793,31.875z
			 M139.762,15.232c2.619,0,5.076,0.182,7.477,1.352c3.291,1.604,6.209,4.473,7.801,7.758c2.758,5.689,1.918,12.498-2.281,17.248
			c-4.346,4.918-11.518,7.158-17.789,4.746c-3.127-1.203-6.449-3.803-8.098-6.754c-1.627-2.91-2.252-5.795-2.252-9.086
			C124.619,22.656,131.863,15.232,139.762,15.232C139.762,15.232,137.307,15.232,139.762,15.232z M135.396,31.875
			c0,2.963,3.244,4.717,5.865,4.568c2.969,0,4.643-3.26,4.501-5.865c0-3.021-3.196-4.723-5.864-4.57
			c-1.566,0-2.783,0.984-3.584,2.26C135.514,29.545,135.396,30.439,135.396,31.875C135.396,33.83,135.396,31.875,135.396,31.875z"/>
	</g>
</g>
</svg>
