<?xml version="1.0" encoding="utf-8"?>
<!-- Generator: Adobe Illustrator 17.0.0, SVG Export Plug-In . SVG Version: 6.00 Build 0)  -->
<!DOCTYPE svg PUBLIC "-//W3C//DTD SVG 1.1//EN" "http://www.w3.org/Graphics/SVG/1.1/DTD/svg11.dtd">
<svg version="1.1" id="Layer_1" xmlns="http://www.w3.org/2000/svg" xmlns:xlink="http://www.w3.org/1999/xlink" x="0px" y="0px"
	 width="96px" height="96px" viewBox="0 0 96 96" enable-background="new 0 0 96 96" xml:space="preserve">
<g id="buttons">
</g>
<g id="buttons_2_">
</g>
<g id="Layer_1_4_">
</g>
<path fill="#0078A5" d="M48,95C22.043,95,1,73.955,1,48C1,22.046,22.043,1,48,1c25.955,0,47,21.046,47,47C95,73.955,73.955,95,48,95
	z"/>
<g id="tools">
</g>
<g>
	<g>
		<path fill="none" stroke="#FFFFFF" stroke-width="3" stroke-linecap="round" stroke-miterlimit="10" d="M60.591,30.244
			c-1.646-0.16-3.345,0.392-4.605,1.652c-2.239,2.239-2.239,5.869,0,8.109s5.871,2.239,8.109,0.001
			c1.321-1.318,1.864-3.12,1.628-4.836"/>
		
			<line fill="none" stroke="#FFFFFF" stroke-width="4.29" stroke-linecap="round" stroke-miterlimit="10" x1="55.496" y1="40.496" x2="30.131" y2="65.881"/>
	</g>
	
		<line fill="none" stroke="#FFFFFF" stroke-width="4.29" stroke-linecap="round" stroke-miterlimit="10" x1="52.462" y1="52.624" x2="65.791" y2="65.953"/>
	
		<line fill="none" stroke="#FFFFFF" stroke-width="4.29" stroke-linecap="round" stroke-miterlimit="10" x1="38.777" y1="38.794" x2="42.704" y2="42.72"/>
	
		<line fill="none" stroke="#FFFFFF" stroke-width="4.29" stroke-linecap="round" stroke-miterlimit="10" x1="31.598" y1="31.919" x2="32.776" y2="33.099"/>
	
		<polygon fill="none" stroke="#FFFFFF" stroke-width="3" stroke-linecap="round" stroke-linejoin="round" stroke-miterlimit="10" points="
		38.321,29.818 29.655,38.483 33.611,42.498 44.888,31.034 	"/>
</g>
</svg>
