<?xml version="1.0" encoding="utf-8"?>
<!-- Generator: Adobe Illustrator 17.0.0, SVG Export Plug-In . SVG Version: 6.00 Build 0)  -->
<!DOCTYPE svg PUBLIC "-//W3C//DTD SVG 1.1//EN" "http://www.w3.org/Graphics/SVG/1.1/DTD/svg11.dtd">
<svg version="1.1" id="Layer_1" xmlns="http://www.w3.org/2000/svg" xmlns:xlink="http://www.w3.org/1999/xlink" x="0px" y="0px"
	 width="96px" height="96px" viewBox="0 0 96 96" enable-background="new 0 0 96 96" xml:space="preserve">
<circle fill="#0078A5" cx="48" cy="48" r="47"/>
<g id="New_Symbol_1">
	<g>
		<path fill="#FFFFFF" d="M66.103,64.034c0,1.137-0.931,2.068-2.068,2.068H31.966c-1.137,0-2.068-0.931-2.068-2.068V31.966
			c0-1.137,0.931-2.068,2.068-2.068h32.068c1.137,0,2.068,0.931,2.068,2.068V64.034z M55.655,63.519V50.207h4.976l0.221-4.794
			h-5.197c0-5.725,0-2.451,0-3.497c0-1.323,0.274-2.118,2.006-2.118c1.594,0,3.055,0.015,3.055,0.015l0.115-4.476
			c0,0-1.435-0.186-3.377-0.186c-4.788,0-6.871,2.952-6.871,6.17c0,2.13,0,4.093,0,4.093h-3.521v4.794h3.521v13.312H55.655z"/>
	</g>
</g>
</svg>
