<?xml version="1.0" encoding="utf-8"?>
<!-- Generator: Adobe Illustrator 17.0.0, SVG Export Plug-In . SVG Version: 6.00 Build 0)  -->
<!DOCTYPE svg PUBLIC "-//W3C//DTD SVG 1.1//EN" "http://www.w3.org/Graphics/SVG/1.1/DTD/svg11.dtd">
<svg version="1.1" id="Layer_1" xmlns="http://www.w3.org/2000/svg" xmlns:xlink="http://www.w3.org/1999/xlink" x="0px" y="0px"
	 width="96px" height="96px" viewBox="0 0 96 96" enable-background="new 0 0 96 96" xml:space="preserve">
<path fill="#0078A5" d="M95,47.998c0,25.957-21.044,47.001-47,47.001c-25.959,0-47-21.044-47-47.001
	C1,22.039,22.041,1.001,47.999,1.001C73.956,1.001,95,22.039,95,47.998z"/>
<path fill="#40A4BF" d="M20.778,77.77"/>
<path fill="#40A4BF" d="M20.778,77.77"/>
<path fill="none" stroke="#FFFFFF" stroke-width="5" stroke-linecap="round" stroke-linejoin="round" stroke-miterlimit="10" d="
	M38.671,37.185c0,0,1.512-1.571,2.659-2.72c1.148-1.149,0.853-3.322-0.656-4.83l-3.837-3.838c-1.509-1.509-3.977-1.509-5.485,0
	l-5.264,5.263c-1.508,1.509-1.7,4.143-0.426,5.855c0,0,11.21,15.06,15.776,19.625c4.565,4.567,19.624,15.775,19.624,15.775
	c1.712,1.274,4.345,1.082,5.855-0.426l5.264-5.264c1.508-1.508,1.508-3.977-0.001-5.485l-3.837-3.838
	c-1.509-1.507-3.682-1.804-4.83-0.655s-2.435,2.493-2.435,2.493"/>
<path fill="none" stroke="#FFFFFF" stroke-width="3" stroke-linecap="round" stroke-linejoin="round" stroke-miterlimit="10" d="
	M56.217,55.316L42.855,42.089"/>
</svg>
