<?xml version="1.0" encoding="utf-8"?>
<!-- Generator: Adobe Illustrator 17.0.0, SVG Export Plug-In . SVG Version: 6.00 Build 0)  -->
<!DOCTYPE svg PUBLIC "-//W3C//DTD SVG 1.1//EN" "http://www.w3.org/Graphics/SVG/1.1/DTD/svg11.dtd">
<svg version="1.1" id="Layer_1" xmlns="http://www.w3.org/2000/svg" xmlns:xlink="http://www.w3.org/1999/xlink" x="0px" y="0px"
	 width="96px" height="96px" viewBox="0 0 96 96" enable-background="new 0 0 96 96" xml:space="preserve">
<g id="Layer_1_1_">
</g>
<path fill="#0078A5" d="M48,96C21.49,96,0,74.506,0,48S21.49,0,48,0c26.507,0,48,21.494,48,48S74.507,96,48,96z"/>
<path fill="none" d="M37.352,45.647h5.646l6.905,3.915l-1.718-4.046l1.024-0.293c2.502-0.715,4.582-2.302,5.936-4.355h-8.267
	C42.949,40.867,39.474,42.76,37.352,45.647z"/>
<g>
	<path fill="none" stroke="#FFFFFF" stroke-width="3" stroke-linecap="round" stroke-linejoin="round" stroke-miterlimit="10" d="
		M66.127,35.857c5.839,1.355,10.606,6.42,10.605,12.576l-0.71-4.051c0.455,1.276,0.71,2.636,0.71,4.051v3.357
		c0,5.118-3.317,9.746-8.263,11.816l0.084,11.001l-13.561-9.852H48.41c-3.264,0-6.057-1.001-8.228-2.701"/>
	<path fill="none" stroke="#FFFFFF" stroke-width="5" stroke-linecap="round" stroke-linejoin="round" stroke-miterlimit="10" d="
		M41.502,49.689L27.255,63.181l0.065-14.542c-2.676-1.128-4.819-3.093-6.119-5.484c-0.41-0.754-0.736-1.551-0.966-2.379
		c-0.265-0.949-0.413-1.935-0.413-2.945v-3.07c0-6.54,5.705-11.859,12.716-11.859h12.985c7.013,0,12.718,5.319,12.718,11.859v3.07
		c0,6.538-5.705,11.858-12.718,11.858h-1.142L41.502,49.689L41.502,49.689z"/>
</g>
</svg>